<svg xmlns="http://www.w3.org/2000/svg" xmlns:xlink="http://www.w3.org/1999/xlink" preserveAspectRatio="xMidYMid" width="120" height="120" viewBox="0 0 120 120">
  <defs>
    <style>
      .cls-1 {
        fill: #fff;
        opacity: 0.75;
        fill-rule: evenodd;
      }
    </style>
  </defs>
  <path d="M120.000,60.000 C120.000,76.643 113.220,91.701 102.276,102.570 L109.002,109.297 L108.297,110.002 L101.554,103.258 C90.771,113.619 76.135,120.000 60.000,120.000 C43.484,120.000 28.529,113.324 17.679,102.527 L10.548,109.658 L9.841,108.951 L16.984,101.808 C6.479,91.002 -0.000,76.261 -0.000,60.000 C-0.000,43.865 6.381,29.229 16.742,18.446 L9.998,11.702 L10.702,10.997 L17.430,17.724 C28.299,6.780 43.356,-0.000 60.000,-0.000 C76.261,-0.000 91.002,6.479 101.808,16.984 L108.451,10.341 L109.159,11.048 L102.527,17.679 C113.324,28.529 120.000,43.484 120.000,60.000 ZM60.000,119.000 C75.859,119.000 90.245,112.731 100.847,102.551 L94.483,96.187 C85.511,104.739 73.373,110.000 60.000,110.000 C46.245,110.000 33.790,104.444 24.750,95.456 L18.386,101.820 C29.055,112.436 43.760,119.000 60.000,119.000 ZM109.000,59.999 C109.000,32.937 87.062,10.999 60.000,10.999 C32.938,10.999 11.000,32.937 11.000,59.999 C11.000,87.061 32.938,108.999 60.000,108.999 C87.062,108.999 109.000,87.061 109.000,59.999 ZM1.000,60.000 C1.000,75.985 7.367,90.476 17.691,101.101 L24.055,94.737 C15.360,85.741 10.000,73.500 10.000,60.000 C10.000,46.626 15.261,34.489 23.813,25.517 L17.449,19.153 C7.269,29.755 1.000,44.141 1.000,60.000 ZM60.000,1.000 C43.633,1.000 28.825,7.668 18.137,18.431 L24.501,24.795 C33.560,15.660 46.118,10.000 60.000,10.000 C73.500,10.000 85.741,15.359 94.737,24.055 L101.101,17.691 C90.476,7.367 75.985,1.000 60.000,1.000 ZM95.456,24.750 C104.444,33.790 110.000,46.245 110.000,60.000 C110.000,73.882 104.339,86.439 95.204,95.499 L101.568,101.863 C112.332,91.175 119.000,76.367 119.000,60.000 C119.000,43.760 112.436,29.055 101.820,18.386 L95.456,24.750 Z" class="cls-1"/>
</svg>
