<svg xmlns="http://www.w3.org/2000/svg" xmlns:xlink="http://www.w3.org/1999/xlink" preserveAspectRatio="xMidYMid" width="61.12" height="61.56" viewBox="0 0 61.12 61.56">
  <defs>
    <style>
      .cls-1 {
        fill: #fff;
        fill-rule: evenodd;
      }
    </style>
  </defs>
  <path d="M60.060,30.000 C60.060,38.231 56.740,45.684 51.372,51.104 L61.127,60.859 L60.420,61.566 L50.641,51.788 C45.267,56.866 38.037,60.000 30.060,60.000 C22.210,60.000 15.087,56.960 9.740,52.025 L0.761,61.004 L0.056,60.298 L9.001,51.353 C3.485,45.913 0.060,38.359 0.060,30.000 C0.060,22.023 3.194,14.793 8.272,9.419 L-0.007,1.140 L0.700,0.432 L8.956,8.688 C14.376,3.320 21.829,-0.000 30.060,-0.000 C38.419,-0.000 45.973,3.425 51.413,8.941 L60.359,-0.005 L61.064,0.701 L52.085,9.680 C57.020,15.027 60.060,22.150 60.060,30.000 ZM30.060,59.000 C37.761,59.000 44.741,55.978 49.934,51.081 L42.156,43.302 C38.958,46.211 34.723,48.000 30.060,48.000 C25.524,48.000 21.391,46.309 18.225,43.540 L10.447,51.318 C15.612,56.073 22.486,59.000 30.060,59.000 ZM47.060,30.000 C47.060,20.611 39.449,13.000 30.060,13.000 C20.671,13.000 13.060,20.611 13.060,30.000 C13.060,39.389 20.671,47.000 30.060,47.000 C39.449,47.000 47.060,39.389 47.060,30.000 ZM1.060,30.000 C1.060,38.083 4.373,45.387 9.708,50.646 L17.486,42.868 C14.142,39.599 12.060,35.045 12.060,30.000 C12.060,25.337 13.848,21.102 16.758,17.904 L8.979,10.126 C4.082,15.319 1.060,22.299 1.060,30.000 ZM30.060,1.000 C22.105,1.000 14.902,4.208 9.663,9.395 L17.441,17.173 C20.690,13.977 25.142,12.000 30.060,12.000 C35.105,12.000 39.660,14.082 42.928,17.426 L50.706,9.648 C45.447,4.313 38.143,1.000 30.060,1.000 ZM51.378,10.387 L43.600,18.165 C46.369,21.331 48.060,25.464 48.060,30.000 C48.060,34.918 46.083,39.370 42.887,42.619 L50.665,50.397 C55.852,45.158 59.060,37.955 59.060,30.000 C59.060,22.426 56.133,15.553 51.378,10.387 ZM26.063,37.542 L26.126,37.480 L18.282,29.636 L19.696,28.221 L27.540,36.065 L40.603,23.003 L42.057,24.456 L27.517,38.996 L26.063,37.542 Z" class="cls-1"/>
</svg>
