<svg xmlns="http://www.w3.org/2000/svg" xmlns:xlink="http://www.w3.org/1999/xlink" preserveAspectRatio="xMidYMid" width="100.156" height="100" viewBox="0 0 100.156 100">
  <defs>
    <style>
      .cls-1 {
        fill: #fff;
        opacity: 0.75;
        fill-rule: evenodd;
      }
    </style>
  </defs>
  <path d="M100.156,50.000 C100.156,63.882 94.495,76.439 85.360,85.499 L99.158,99.297 L98.453,100.001 L84.639,86.187 C75.667,94.739 63.530,100.000 50.156,100.000 C36.401,100.000 23.946,94.444 14.906,85.456 L0.704,99.658 L-0.003,98.951 L14.211,84.737 C5.516,75.741 0.156,63.500 0.156,50.000 C0.156,36.626 5.417,24.489 13.969,15.517 L0.153,1.702 L0.858,0.997 L14.657,14.795 C23.716,5.660 36.274,-0.000 50.156,-0.000 C63.656,-0.000 75.897,5.359 84.893,14.055 L98.607,0.341 L99.314,1.048 L85.612,14.750 C94.600,23.790 100.156,36.245 100.156,50.000 ZM50.156,98.999 C63.253,98.999 75.141,93.851 83.931,85.480 L70.476,72.025 C65.130,76.960 58.006,80.000 50.156,80.000 C41.924,80.000 34.471,76.680 29.051,71.311 L15.614,84.749 C24.473,93.555 36.678,98.999 50.156,98.999 ZM79.156,50.000 C79.156,33.984 66.172,21.000 50.156,21.000 C34.140,21.000 21.156,33.984 21.156,50.000 C21.156,66.016 34.140,79.000 50.156,79.000 C66.172,79.000 79.156,66.016 79.156,50.000 ZM1.156,49.999 C1.156,63.223 6.404,75.214 14.918,84.030 L28.368,70.580 C23.290,65.207 20.156,57.977 20.156,50.000 C20.156,42.150 23.196,35.026 28.131,29.680 L14.675,16.224 C6.304,25.015 1.156,36.902 1.156,49.999 ZM50.156,0.999 C36.550,0.999 24.242,6.548 15.364,15.502 L28.802,28.941 C34.243,23.425 41.797,20.000 50.156,20.000 C58.133,20.000 65.363,23.134 70.736,28.212 L84.186,14.762 C75.371,6.247 63.380,0.999 50.156,0.999 ZM71.467,28.895 C76.836,34.315 80.156,41.768 80.156,50.000 C80.156,58.359 76.731,65.913 71.215,71.353 L84.653,84.792 C93.607,75.913 99.156,63.605 99.156,49.999 C99.156,36.521 93.712,24.316 84.905,15.457 L71.467,28.895 Z" class="cls-1"/>
</svg>
