<svg xmlns="http://www.w3.org/2000/svg" xmlns:xlink="http://www.w3.org/1999/xlink" preserveAspectRatio="xMidYMid" width="16" height="21" viewBox="0 0 16 21">
  <defs>
    <style>
      .cls-1 {
        fill: #fff;
        fill-rule: evenodd;
      }
    </style>
  </defs>
  <path d="M8.893,20.000 L14.000,20.000 L14.000,21.000 L2.000,21.000 L2.000,20.000 L7.107,20.000 C5.027,17.619 -0.000,11.505 -0.000,7.999 C-0.000,3.581 3.582,-0.001 8.000,-0.001 C12.418,-0.001 16.000,3.581 16.000,7.999 C16.000,11.505 10.973,17.619 8.893,20.000 ZM8.000,0.999 C4.134,0.999 1.000,4.133 1.000,7.999 C1.000,11.865 8.000,18.999 8.000,18.999 C8.000,18.999 15.000,11.865 15.000,7.999 C15.000,4.133 11.866,0.999 8.000,0.999 ZM8.000,12.000 C5.791,12.000 4.000,10.209 4.000,8.000 C4.000,5.791 5.791,4.000 8.000,4.000 C10.209,4.000 12.000,5.791 12.000,8.000 C12.000,10.209 10.209,12.000 8.000,12.000 ZM8.000,5.000 C6.343,5.000 5.000,6.343 5.000,8.000 C5.000,9.657 6.343,11.000 8.000,11.000 C9.657,11.000 11.000,9.657 11.000,8.000 C11.000,6.343 9.657,5.000 8.000,5.000 Z" class="cls-1"/>
</svg>
