<svg xmlns="http://www.w3.org/2000/svg" xmlns:xlink="http://www.w3.org/1999/xlink" preserveAspectRatio="xMidYMid" width="60" height="60" viewBox="0 0 60 60">
  <defs>
    <style>
      .cls-1 {
        fill: #fff;
        fill-rule: evenodd;
      }
    </style>
  </defs>
  <g>
    <path d="M60.000,30.000 C60.000,37.977 56.866,45.207 51.788,50.581 L56.067,54.860 L55.360,55.567 L51.105,51.312 C45.684,56.680 38.232,60.000 30.000,60.000 C22.023,60.000 14.793,56.866 9.419,51.788 L5.640,55.567 L4.933,54.860 L8.688,51.105 C3.320,45.684 0.000,38.232 0.000,30.000 C0.000,21.768 3.320,14.316 8.688,8.895 L4.933,5.140 L5.640,4.433 L9.419,8.212 C14.793,3.134 22.023,0.000 30.000,0.000 C38.231,0.000 45.684,3.320 51.105,8.688 L54.360,5.433 L55.067,6.140 L51.788,9.419 C56.866,14.793 60.000,22.023 60.000,30.000 ZM30.000,59.000 C37.955,59.000 45.158,55.792 50.398,50.605 L47.569,47.776 C43.054,52.240 36.851,55.000 30.000,55.000 C23.404,55.000 17.422,52.426 12.955,48.252 L10.126,51.081 C15.319,55.978 22.299,59.000 30.000,59.000 ZM54.000,30.000 C54.000,16.745 43.255,6.000 30.000,6.000 C16.745,6.000 6.000,16.745 6.000,30.000 C6.000,43.255 16.745,54.000 30.000,54.000 C43.255,54.000 54.000,43.255 54.000,30.000 ZM9.395,9.602 C4.208,14.842 1.000,22.045 1.000,30.000 C1.000,37.955 4.208,45.158 9.395,50.398 L12.224,47.569 C7.760,43.053 5.000,36.851 5.000,30.000 C5.000,23.149 7.760,16.946 12.224,12.431 L9.395,9.602 ZM30.000,1.000 C22.299,1.000 15.319,4.022 10.126,8.919 L12.955,11.748 C17.422,7.574 23.404,5.000 30.000,5.000 C36.851,5.000 43.053,7.760 47.569,12.224 L50.398,9.395 C45.158,4.208 37.955,1.000 30.000,1.000 ZM51.081,10.126 L48.252,12.955 C52.426,17.422 55.000,23.404 55.000,30.000 C55.000,36.596 52.426,42.578 48.252,47.045 L51.081,49.874 C55.978,44.681 59.000,37.701 59.000,30.000 C59.000,22.299 55.978,15.319 51.081,10.126 Z" class="cls-1"/>
    <path d="M35.789,45.000 L23.711,45.000 C22.216,45.000 21.000,43.798 21.000,42.321 L21.000,17.678 C21.000,16.201 22.216,15.000 23.711,15.000 L35.789,15.000 C37.284,15.000 38.500,16.201 38.500,17.678 L38.500,42.321 C38.500,43.798 37.284,45.000 35.789,45.000 ZM37.126,17.678 C37.126,16.950 36.526,16.357 35.789,16.357 L23.711,16.357 C22.974,16.357 22.374,16.950 22.374,17.678 L22.500,20.500 L22.500,39.000 L22.374,42.321 C22.374,43.049 22.974,43.642 23.711,43.642 L35.789,43.642 C36.526,43.642 37.126,43.049 37.126,42.321 L37.000,39.000 L37.000,20.500 L37.126,17.678 ZM25.500,30.500 L36.000,26.500 L36.000,27.500 L25.500,31.500 L25.500,30.500 ZM27.000,27.500 L31.000,26.000 L31.000,27.000 L27.000,28.500 L27.000,27.500 ZM25.500,20.994 C24.952,20.994 24.507,20.545 24.507,19.992 C24.507,19.440 24.952,18.990 25.500,18.990 C26.047,18.990 26.492,19.440 26.492,19.992 C26.492,20.545 26.047,20.994 25.500,20.994 ZM33.500,31.000 L23.500,35.000 L23.500,34.000 L33.500,30.000 L33.500,31.000 ZM28.000,35.500 L25.500,36.500 L25.500,35.500 L28.000,34.500 L28.000,35.500 Z" class="cls-1"/>
  </g>
</svg>
