<svg xmlns="http://www.w3.org/2000/svg" xmlns:xlink="http://www.w3.org/1999/xlink" preserveAspectRatio="xMidYMid" width="36" height="56" viewBox="0 0 36 56">
  <defs>
    <style>
      .cls-1 {
        fill: #fff;
        fill-rule: evenodd;
      }
    </style>
  </defs>
  <path d="M19.385,46.129 L19.385,53.199 L29.077,53.199 C29.838,53.199 30.461,53.829 30.461,54.599 C30.461,55.369 29.838,55.999 29.077,55.999 L6.923,55.999 C6.161,55.999 5.538,55.369 5.538,54.599 C5.538,53.829 6.161,53.199 6.923,53.199 L16.615,53.199 L16.615,46.129 C13.058,45.861 9.791,44.525 7.109,42.452 L9.043,40.414 C11.563,42.281 14.655,43.399 18.000,43.399 C26.377,43.399 33.231,36.469 33.231,27.999 C33.231,27.229 33.854,26.599 34.615,26.599 C35.377,26.599 36.000,27.229 36.000,27.999 C36.000,37.589 28.661,45.429 19.385,46.129 ZM28.385,20.026 L28.385,27.999 C28.385,33.809 23.746,38.499 18.000,38.499 C15.943,38.499 14.033,37.890 12.422,36.852 L14.384,34.784 C15.458,35.368 16.689,35.699 18.000,35.699 C22.223,35.699 25.615,32.269 25.615,27.999 L25.615,22.945 L28.385,20.026 ZM2.000,40.999 L33.000,8.000 L33.000,10.999 L2.000,43.999 L2.000,40.999 ZM25.615,10.499 C25.615,6.229 22.223,2.799 18.000,2.799 C13.777,2.799 10.385,6.229 10.385,10.499 L10.385,27.999 L7.941,30.574 C7.736,29.749 7.615,28.890 7.615,27.999 L7.615,10.499 C7.615,4.689 12.254,-0.001 18.000,-0.001 C23.286,-0.001 27.624,3.971 28.287,9.129 L25.615,11.945 L25.615,10.499 ZM-0.000,27.999 C-0.000,27.229 0.623,26.599 1.385,26.599 C2.146,26.599 2.769,27.229 2.769,27.999 C2.769,30.321 3.299,32.519 4.219,34.498 L2.188,36.639 C0.801,34.061 -0.000,31.121 -0.000,27.999 Z" class="cls-1"/>
</svg>
