<svg xmlns="http://www.w3.org/2000/svg" xmlns:xlink="http://www.w3.org/1999/xlink" preserveAspectRatio="xMidYMid" width="49" height="40" viewBox="0 0 49 40">
  <defs>
    <style>
      .cls-1 {
        fill: #fff;
        fill-rule: evenodd;
      }
    </style>
  </defs>
  <path d="M46.423,27.999 L46.423,2.587 L2.577,2.587 L2.577,37.417 L44.687,37.417 L32.075,24.753 L28.363,28.480 C27.862,28.985 27.047,28.985 26.545,28.480 L19.920,21.828 L8.078,33.718 C7.577,34.223 6.762,34.223 6.260,33.718 C5.758,33.214 5.758,32.397 6.260,31.893 L19.011,19.089 C19.513,18.584 20.327,18.584 20.829,19.089 L27.454,25.741 L31.166,22.014 C31.668,21.510 32.482,21.510 32.984,22.014 L46.423,35.508 L46.423,35.153 L48.838,39.293 C48.624,39.707 48.205,39.999 47.709,39.999 L1.291,39.999 C0.581,39.999 0.005,39.421 0.005,38.708 L0.005,1.296 C0.005,0.583 0.581,0.005 1.291,0.005 L47.709,0.005 C48.419,0.005 48.994,0.583 48.994,1.296 L48.994,27.999 L46.423,27.999 Z" class="cls-1"/>
</svg>
