<svg xmlns="http://www.w3.org/2000/svg" xmlns:xlink="http://www.w3.org/1999/xlink" preserveAspectRatio="xMidYMid" width="42" height="41.97" viewBox="0 0 42 41.97">
  <defs>
    <style>
      .cls-1 {
        fill: #fff;
        fill-rule: evenodd;
      }
    </style>
  </defs>
  <path d="M39.027,16.244 C37.112,18.176 34.565,19.240 31.856,19.240 C31.853,19.240 31.851,19.240 31.848,19.240 C31.027,19.239 29.827,18.974 29.129,18.800 L26.625,21.325 C26.439,21.512 26.196,21.606 25.953,21.606 C25.710,21.606 25.467,21.512 25.281,21.325 C24.910,20.951 24.910,20.344 25.281,19.970 L28.170,17.057 C28.412,16.812 28.766,16.719 29.096,16.811 C29.605,16.953 31.092,17.324 31.850,17.324 C31.852,17.324 31.854,17.324 31.856,17.324 C34.058,17.324 36.127,16.460 37.684,14.889 C39.242,13.318 40.100,11.229 40.100,9.007 C40.099,6.606 39.062,4.345 37.312,2.783 L37.313,9.054 C37.313,9.369 37.160,9.664 36.903,9.843 L32.393,12.989 C32.067,13.216 31.636,13.216 31.311,12.989 L26.803,9.841 C26.546,9.662 26.393,9.368 26.393,9.053 L26.390,2.782 C24.641,4.345 23.603,6.609 23.603,9.011 C23.603,10.191 23.869,11.365 24.392,12.500 C24.561,12.864 24.485,13.296 24.203,13.581 L23.418,14.373 C23.047,14.747 22.446,14.747 22.074,14.373 C21.703,13.999 21.703,13.392 22.074,13.018 L22.404,12.685 C21.939,11.488 21.703,10.256 21.703,9.011 C21.703,5.327 23.684,1.910 26.873,0.094 C27.167,-0.074 27.527,-0.071 27.819,0.100 C28.110,0.272 28.290,0.587 28.290,0.927 L28.294,8.551 L31.852,11.035 L35.412,8.552 L35.411,0.930 C35.411,0.589 35.590,0.274 35.882,0.102 C36.174,-0.070 36.534,-0.072 36.828,0.095 C40.017,1.910 41.999,5.325 42.000,9.007 C42.000,11.741 40.944,14.311 39.027,16.244 ZM24.249,17.037 C24.620,17.411 24.620,18.018 24.249,18.392 L22.658,19.996 L32.502,29.921 L35.227,30.917 C35.358,30.966 35.476,31.042 35.575,31.141 L41.098,36.710 C41.276,36.890 41.376,37.133 41.376,37.387 C41.376,37.642 41.276,37.885 41.098,38.065 L37.504,41.688 C37.319,41.876 37.075,41.969 36.832,41.969 C36.589,41.969 36.346,41.876 36.160,41.688 L30.637,36.120 C30.539,36.021 30.463,35.901 30.416,35.769 L29.427,33.021 L19.584,23.096 L17.993,24.700 C17.622,25.074 17.021,25.074 16.650,24.700 C16.368,24.416 16.300,23.998 16.446,23.649 L1.557,8.637 C0.653,7.727 0.155,6.516 0.155,5.229 C0.154,3.940 0.652,2.728 1.556,1.816 C2.459,0.906 3.660,0.406 4.937,0.406 C4.939,0.406 4.940,0.406 4.942,0.406 C6.219,0.407 7.418,0.910 8.319,1.821 L23.208,16.832 C23.553,16.684 23.968,16.753 24.249,17.037 ZM30.921,31.817 C31.019,31.916 31.095,32.035 31.142,32.167 L32.130,34.915 L36.832,39.656 L39.082,37.387 L34.380,32.647 L31.655,31.650 C31.524,31.602 31.406,31.526 31.307,31.427 L21.314,21.351 L20.928,21.741 L30.921,31.817 ZM6.974,3.174 C6.431,2.625 5.709,2.323 4.940,2.322 C4.939,2.322 4.938,2.322 4.937,2.322 C4.167,2.322 3.444,2.624 2.899,3.172 C2.355,3.721 2.055,4.451 2.055,5.228 C2.056,6.004 2.356,6.733 2.900,7.282 L17.740,22.245 L20.636,19.325 C20.638,19.322 20.640,19.320 20.642,19.319 C20.644,19.316 20.646,19.314 20.649,19.312 L21.814,18.137 L6.974,3.174 ZM18.041,19.398 C17.798,19.398 17.554,19.304 17.369,19.117 L4.260,5.900 C3.889,5.525 3.889,4.918 4.260,4.544 C4.631,4.170 5.233,4.170 5.604,4.544 L18.713,17.762 C19.084,18.137 19.084,18.743 18.713,19.117 C18.527,19.304 18.284,19.398 18.041,19.398 ZM3.681,38.012 C3.680,38.011 3.679,38.010 3.678,38.009 C3.224,37.547 3.226,36.799 3.683,36.342 C3.900,36.122 4.194,35.999 4.507,35.998 C4.507,35.998 4.507,35.998 4.508,35.998 C4.820,35.998 5.114,36.121 5.335,36.344 C5.790,36.801 5.791,37.549 5.336,38.010 C5.107,38.240 4.806,38.356 4.507,38.356 C4.207,38.356 3.909,38.241 3.681,38.012 ZM12.663,22.507 C13.035,22.133 13.636,22.133 14.007,22.507 C14.378,22.881 14.378,23.488 14.007,23.862 L2.669,35.295 C2.173,35.794 1.900,36.456 1.900,37.162 C1.899,37.869 2.171,38.534 2.666,39.034 C3.162,39.533 3.820,39.808 4.520,39.808 C4.521,39.808 4.521,39.808 4.522,39.808 C5.222,39.808 5.881,39.532 6.376,39.033 L19.558,25.741 C19.929,25.367 20.531,25.367 20.902,25.741 C21.273,26.115 21.273,26.722 20.902,27.096 L7.720,40.388 C6.866,41.249 5.731,41.724 4.523,41.725 C4.522,41.725 4.521,41.725 4.520,41.725 C3.313,41.725 2.177,41.250 1.322,40.388 C0.467,39.526 -0.002,38.379 -0.001,37.159 C0.001,35.942 0.472,34.798 1.326,33.939 L12.663,22.507 Z" class="cls-1"/>
</svg>
