<svg xmlns="http://www.w3.org/2000/svg" xmlns:xlink="http://www.w3.org/1999/xlink" preserveAspectRatio="xMidYMid" width="29.59" height="30.09" viewBox="0 0 29.59 30.09">
  <defs>
    <style>
      .cls-1 {
        fill: #fff;
        fill-rule: evenodd;
      }
    </style>
  </defs>
  <path d="M29.596,28.681 L28.182,30.095 L22.896,24.810 C20.477,26.803 17.379,28.000 14.000,28.000 C6.268,28.000 -0.000,21.732 -0.000,14.000 C-0.000,6.268 6.268,-0.000 14.000,-0.000 C21.732,-0.000 28.000,6.268 28.000,14.000 C28.000,17.633 26.604,20.932 24.335,23.420 L29.596,28.681 ZM26.000,14.000 C26.000,7.372 20.627,2.000 14.000,2.000 C7.373,2.000 2.000,7.372 2.000,14.000 C2.000,20.627 7.373,26.000 14.000,26.000 C20.627,26.000 26.000,20.627 26.000,14.000 ZM7.007,10.925 C6.423,10.975 5.764,10.999 5.000,10.999 C5.000,7.686 7.686,4.999 11.000,4.999 C11.000,5.761 10.981,6.420 10.935,7.006 C8.782,7.041 7.048,8.774 7.007,10.925 Z" class="cls-1"/>
</svg>
