<svg xmlns="http://www.w3.org/2000/svg" xmlns:xlink="http://www.w3.org/1999/xlink" preserveAspectRatio="xMidYMid" width="30" height="30.16" viewBox="0 0 30 30.16">
  <defs>
    <style>
      .cls-1 {
        fill: #fff;
        fill-rule: evenodd;
      }
    </style>
  </defs>
  <path d="M28.000,8.160 L27.000,8.160 L2.000,8.160 L2.000,8.159 C-0.333,24.006 15.000,28.159 15.000,28.159 C15.000,28.159 28.682,24.056 28.158,10.160 L29.947,10.160 C29.979,10.791 30.000,11.449 30.000,12.159 C30.000,26.659 15.000,30.159 15.000,30.159 C15.000,30.159 -0.000,26.659 -0.000,12.159 C-0.000,-2.341 6.716,0.159 15.000,0.159 C22.419,0.159 28.576,-1.836 29.782,8.160 L28.000,8.160 ZM15.000,2.159 C8.583,2.159 3.266,1.235 2.205,6.160 L27.795,6.160 C26.734,1.235 21.416,2.159 15.000,2.159 Z" class="cls-1"/>
</svg>
