<svg xmlns="http://www.w3.org/2000/svg" xmlns:xlink="http://www.w3.org/1999/xlink" preserveAspectRatio="xMidYMid" width="60" height="60" viewBox="0 0 60 60">
  <defs>
    <style>
      .cls-1 {
        fill: #fff;
        fill-rule: evenodd;
      }
    </style>
  </defs>
  <g>
    <path d="M60.000,30.000 C60.000,37.977 56.866,45.207 51.788,50.581 L56.067,54.860 L55.360,55.567 L51.105,51.312 C45.684,56.680 38.232,60.000 30.000,60.000 C22.023,60.000 14.793,56.866 9.419,51.788 L5.640,55.567 L4.933,54.860 L8.688,51.105 C3.320,45.684 0.000,38.232 0.000,30.000 C0.000,21.768 3.320,14.316 8.688,8.895 L4.933,5.140 L5.640,4.433 L9.419,8.212 C14.793,3.134 22.023,0.000 30.000,0.000 C38.231,0.000 45.684,3.320 51.105,8.688 L54.360,5.433 L55.067,6.140 L51.788,9.419 C56.866,14.793 60.000,22.023 60.000,30.000 ZM30.000,59.000 C37.955,59.000 45.158,55.792 50.398,50.605 L47.569,47.776 C43.054,52.240 36.851,55.000 30.000,55.000 C23.404,55.000 17.422,52.426 12.955,48.252 L10.126,51.081 C15.319,55.978 22.299,59.000 30.000,59.000 ZM54.000,30.000 C54.000,16.745 43.255,6.000 30.000,6.000 C16.745,6.000 6.000,16.745 6.000,30.000 C6.000,43.255 16.745,54.000 30.000,54.000 C43.255,54.000 54.000,43.255 54.000,30.000 ZM9.395,9.602 C4.208,14.842 1.000,22.045 1.000,30.000 C1.000,37.955 4.208,45.158 9.395,50.398 L12.224,47.569 C7.760,43.053 5.000,36.851 5.000,30.000 C5.000,23.149 7.760,16.946 12.224,12.431 L9.395,9.602 ZM30.000,1.000 C22.299,1.000 15.319,4.022 10.126,8.919 L12.955,11.748 C17.422,7.574 23.404,5.000 30.000,5.000 C36.851,5.000 43.053,7.760 47.569,12.224 L50.398,9.395 C45.158,4.208 37.955,1.000 30.000,1.000 ZM51.081,10.126 L48.252,12.955 C52.426,17.422 55.000,23.404 55.000,30.000 C55.000,36.596 52.426,42.578 48.252,47.045 L51.081,49.874 C55.978,44.681 59.000,37.701 59.000,30.000 C59.000,22.299 55.978,15.319 51.081,10.126 Z" class="cls-1"/>
    <path d="M31.192,39.564 L31.192,43.099 L36.038,43.099 C36.419,43.099 36.731,43.415 36.731,43.799 C36.731,44.185 36.419,44.500 36.038,44.500 L24.961,44.500 C24.581,44.500 24.269,44.185 24.269,43.799 C24.269,43.415 24.581,43.099 24.961,43.099 L29.808,43.099 L29.808,39.564 C28.029,39.430 26.396,38.763 25.054,37.726 L26.021,36.707 C27.281,37.640 28.827,38.199 30.500,38.199 C34.688,38.199 38.115,34.734 38.115,30.500 C38.115,30.114 38.427,29.800 38.808,29.800 C39.188,29.800 39.500,30.114 39.500,30.500 C39.500,35.295 35.831,39.215 31.192,39.564 ZM35.692,26.513 L35.692,30.500 C35.692,33.405 33.373,35.749 30.500,35.749 C29.472,35.749 28.521,35.439 27.716,34.921 L28.704,33.879 C29.241,34.169 29.846,34.349 30.500,34.349 C32.611,34.349 34.308,32.634 34.308,30.500 L34.308,27.972 L35.692,26.513 ZM22.500,37.000 L38.000,20.500 L38.000,21.999 L22.500,38.499 L22.500,37.000 ZM34.308,21.749 C34.308,19.615 32.611,17.899 30.500,17.899 C28.388,17.899 26.692,19.615 26.692,21.749 L26.692,30.500 L25.480,31.778 C25.378,31.366 25.308,30.943 25.308,30.500 L25.308,21.749 C25.308,18.844 27.627,16.500 30.500,16.500 C33.147,16.500 35.300,18.497 35.626,21.083 L34.308,22.472 L34.308,21.749 ZM21.500,30.500 C21.500,30.114 21.811,29.800 22.192,29.800 C22.573,29.800 22.885,30.114 22.885,30.500 C22.885,31.660 23.150,32.759 23.610,33.749 L22.594,34.819 C21.900,33.530 21.500,32.060 21.500,30.500 Z" class="cls-1"/>
  </g>
</svg>
