<svg xmlns="http://www.w3.org/2000/svg" xmlns:xlink="http://www.w3.org/1999/xlink" preserveAspectRatio="xMidYMid" width="54" height="35.219" viewBox="0 0 54 35.219">
  <defs>
    <style>
      .cls-1 {
        fill: #fff;
        fill-rule: evenodd;
      }
    </style>
  </defs>
  <path d="M52.716,31.593 L40.619,31.593 C39.910,31.593 39.335,31.014 39.335,30.300 C39.335,29.585 39.910,29.007 40.619,29.007 L51.431,29.007 L51.431,6.180 L34.509,6.180 C33.800,6.180 33.225,5.601 33.225,4.887 C33.225,4.172 33.800,3.593 34.509,3.593 L52.716,3.593 C53.425,3.593 54.000,4.172 54.000,4.887 L54.000,30.300 C54.000,31.014 53.425,31.593 52.716,31.593 ZM37.753,18.089 C37.554,18.572 37.086,18.887 36.566,18.887 L25.388,18.887 L35.464,32.999 C35.966,33.504 35.966,34.323 35.464,34.828 C35.214,35.081 34.885,35.207 34.556,35.207 C34.228,35.207 33.899,35.081 33.648,34.828 L21.379,18.509 C21.012,18.139 20.902,17.583 21.101,17.099 C21.299,16.616 21.768,16.300 22.287,16.300 L33.465,16.300 L24.389,2.191 C23.888,1.685 23.888,0.866 24.389,0.361 C24.890,-0.144 25.704,-0.144 26.205,0.361 L37.474,16.679 C37.842,17.049 37.952,17.606 37.753,18.089 ZM20.235,6.180 L7.420,6.180 L7.420,29.006 L24.344,29.006 C25.054,29.006 25.629,29.585 25.629,30.300 C25.629,31.014 25.054,31.593 24.344,31.593 L6.136,31.593 C5.426,31.593 4.851,31.014 4.851,30.300 L4.851,4.887 C4.851,4.172 5.426,3.593 6.136,3.593 L20.235,3.593 C20.944,3.593 21.519,4.172 21.519,4.887 C21.519,5.601 20.944,6.180 20.235,6.180 ZM1.284,27.242 C0.575,27.242 -0.000,26.663 -0.000,25.948 L-0.000,9.240 C-0.000,8.526 0.575,7.946 1.284,7.946 C1.994,7.946 2.569,8.526 2.569,9.240 L2.569,25.948 C2.569,26.663 1.994,27.242 1.284,27.242 Z" class="cls-1"/>
</svg>
