<svg xmlns="http://www.w3.org/2000/svg" xmlns:xlink="http://www.w3.org/1999/xlink" preserveAspectRatio="xMidYMid" width="38" height="50" viewBox="0 0 38 50">
  <defs>
    <style>
      .cls-1 {
        fill: #fff;
        fill-rule: evenodd;
      }
    </style>
  </defs>
  <path d="M32.858,49.999 L5.142,49.999 C2.307,49.999 -0.000,47.698 -0.000,44.870 L-0.000,6.857 C-0.000,4.029 2.307,1.727 5.142,1.727 L15.536,1.727 C15.545,1.727 15.555,1.728 15.564,1.728 C16.344,0.680 17.594,-0.001 19.000,-0.001 C20.406,-0.001 21.656,0.680 22.436,1.728 C22.445,1.728 22.455,1.727 22.464,1.727 L32.858,1.727 C35.693,1.727 38.000,4.029 38.000,6.857 L38.000,44.870 C38.000,47.698 35.693,49.999 32.858,49.999 ZM21.652,5.129 L21.652,4.265 C21.652,2.806 20.463,1.619 19.000,1.619 C17.537,1.619 16.347,2.806 16.347,4.265 L16.347,5.129 C16.347,5.576 15.984,5.939 15.536,5.939 L12.071,5.939 C11.564,5.939 11.151,6.351 11.151,6.857 C11.151,7.363 11.564,7.775 12.071,7.775 L25.929,7.775 C26.436,7.775 26.849,7.363 26.849,6.857 C26.849,6.351 26.436,5.939 25.929,5.939 L22.464,5.939 C22.016,5.939 21.652,5.576 21.652,5.129 ZM9.528,6.803 L5.142,6.803 C5.113,6.803 5.088,6.827 5.088,6.857 L5.088,44.870 C5.088,44.900 5.113,44.924 5.142,44.924 L32.858,44.924 C32.887,44.924 32.912,44.900 32.912,44.870 L32.912,6.857 C32.912,6.827 32.887,6.803 32.858,6.803 L28.471,6.803 C28.472,6.821 28.473,6.839 28.473,6.857 C28.473,8.256 27.332,9.395 25.929,9.395 L12.071,9.395 C10.668,9.395 9.527,8.256 9.527,6.857 C9.527,6.839 9.528,6.821 9.528,6.803 ZM36.376,6.857 C36.376,4.922 34.798,3.347 32.858,3.347 L23.175,3.347 C23.241,3.643 23.276,3.950 23.276,4.265 L23.276,4.319 L25.929,4.319 C26.689,4.319 27.372,4.654 27.839,5.183 L32.858,5.183 C33.783,5.183 34.536,5.934 34.536,6.857 L34.536,44.870 C34.536,45.793 33.783,46.544 32.858,46.544 L5.142,46.544 C4.217,46.544 3.464,45.793 3.464,44.870 L3.464,6.857 C3.464,5.934 4.217,5.183 5.142,5.183 L10.161,5.183 C10.628,4.654 11.311,4.319 12.071,4.319 L14.724,4.319 L14.724,4.265 C14.724,3.950 14.759,3.643 14.824,3.347 L5.142,3.347 C3.202,3.347 1.624,4.922 1.624,6.857 L1.624,44.870 C1.624,46.805 3.202,48.380 5.142,48.380 L32.858,48.380 C34.798,48.380 36.376,46.805 36.376,44.870 L36.376,6.857 ZM28.527,17.278 C28.976,17.278 29.339,17.641 29.339,18.088 C29.339,18.535 28.976,18.898 28.527,18.898 L10.134,18.898 C9.685,18.898 9.322,18.535 9.322,18.088 C9.322,17.641 9.685,17.278 10.134,17.278 L28.527,17.278 ZM10.134,25.917 L28.527,25.917 C28.976,25.917 29.339,26.280 29.339,26.727 C29.339,27.175 28.976,27.537 28.527,27.537 L10.134,27.537 C9.685,27.537 9.322,27.175 9.322,26.727 C9.322,26.280 9.685,25.917 10.134,25.917 ZM10.134,29.917 L28.527,29.917 C28.976,29.917 29.339,30.280 29.339,30.727 C29.339,31.175 28.976,31.537 28.527,31.537 L10.134,31.537 C9.685,31.537 9.322,31.175 9.322,30.727 C9.322,30.280 9.685,29.917 10.134,29.917 ZM10.134,34.556 L28.527,34.556 C28.976,34.556 29.339,34.919 29.339,35.367 C29.339,35.814 28.976,36.176 28.527,36.176 L10.134,36.176 C9.685,36.176 9.322,35.814 9.322,35.367 C9.322,34.919 9.685,34.556 10.134,34.556 ZM19.000,6.803 C18.551,6.803 18.188,6.440 18.188,5.993 L18.188,4.265 C18.188,3.818 18.551,3.455 19.000,3.455 C19.448,3.455 19.812,3.818 19.812,4.265 L19.812,5.993 C19.812,6.440 19.448,6.803 19.000,6.803 Z" class="cls-1"/>
</svg>
