<svg xmlns="http://www.w3.org/2000/svg" xmlns:xlink="http://www.w3.org/1999/xlink" preserveAspectRatio="xMidYMid" width="30" height="30" viewBox="0 0 30 30">
  <defs>
    <style>
      .cls-1 {
        fill: #fff;
        fill-rule: evenodd;
      }
    </style>
  </defs>
  <path d="M24.000,12.000 L26.000,12.000 L26.000,14.000 L24.000,14.000 L24.000,12.000 ZM26.000,22.000 L24.000,22.000 L24.000,20.000 L26.000,20.000 L26.000,22.000 ZM24.000,16.000 L26.000,16.000 L26.000,18.000 L24.000,18.000 L24.000,16.000 ZM20.000,12.000 L22.000,12.000 L22.000,14.000 L20.000,14.000 L20.000,12.000 ZM22.000,22.000 L20.000,22.000 L20.000,20.000 L22.000,20.000 L22.000,22.000 ZM20.000,16.000 L22.000,16.000 L22.000,18.000 L20.000,18.000 L20.000,16.000 ZM16.000,12.000 L18.000,12.000 L18.000,14.000 L16.000,14.000 L16.000,12.000 ZM18.000,22.000 L16.000,22.000 L16.000,20.000 L18.000,20.000 L18.000,22.000 ZM16.000,16.000 L18.000,16.000 L18.000,18.000 L16.000,18.000 L16.000,16.000 ZM12.000,12.000 L14.000,12.000 L14.000,14.000 L12.000,14.000 L12.000,12.000 ZM14.000,22.000 L12.000,22.000 L12.000,20.000 L14.000,20.000 L14.000,22.000 ZM12.000,16.000 L14.000,16.000 L14.000,18.000 L12.000,18.000 L12.000,16.000 ZM8.000,12.000 L10.000,12.000 L10.000,14.000 L8.000,14.000 L8.000,12.000 ZM10.000,22.000 L8.000,22.000 L8.000,20.000 L10.000,20.000 L10.000,22.000 ZM8.000,16.000 L10.000,16.000 L10.000,18.000 L8.000,18.000 L8.000,16.000 ZM4.000,11.999 L6.000,11.999 L6.000,13.999 L4.000,13.999 L4.000,11.999 ZM6.000,21.999 L4.000,21.999 L4.000,19.999 L6.000,19.999 L6.000,21.999 ZM4.000,16.000 L6.000,16.000 L6.000,17.999 L4.000,17.999 L4.000,16.000 ZM25.000,30.000 L5.000,30.000 C2.238,30.000 -0.000,27.761 -0.000,25.000 L-0.000,9.000 L2.000,9.000 L2.000,25.000 C2.000,26.657 3.343,28.000 5.000,28.000 L25.000,28.000 C26.657,28.000 28.000,26.657 28.000,25.000 L28.000,9.000 L28.000,7.000 L2.000,7.000 L-0.000,7.000 L-0.000,5.000 C-0.000,2.238 2.238,-0.000 5.000,-0.000 L25.000,-0.000 C27.761,-0.000 30.000,2.238 30.000,5.000 L30.000,25.000 C30.000,27.761 27.761,30.000 25.000,30.000 ZM25.000,2.000 L5.000,2.000 C3.343,2.000 2.000,3.343 2.000,5.000 L28.000,5.000 C28.000,3.343 26.657,2.000 25.000,2.000 Z" class="cls-1"/>
</svg>
