<svg xmlns="http://www.w3.org/2000/svg" xmlns:xlink="http://www.w3.org/1999/xlink" preserveAspectRatio="xMidYMid" width="30" height="33" viewBox="0 0 30 33">
  <defs>
    <style>
      .cls-1 {
        fill: #fff;
        fill-rule: evenodd;
      }
    </style>
  </defs>
  <path d="M28.834,28.999 C28.189,28.999 27.669,28.479 27.669,27.834 C27.669,23.360 25.211,19.319 21.251,17.302 C20.680,17.005 20.451,16.302 20.743,15.731 C21.040,15.154 21.743,14.931 22.314,15.222 C27.051,17.639 30.000,22.474 30.000,27.834 C30.000,28.479 29.480,28.999 28.834,28.999 ZM15.000,15.989 C10.580,15.989 6.988,12.405 6.988,7.995 C6.988,3.584 10.580,-0.000 15.000,-0.000 C19.420,-0.000 23.011,3.584 23.011,7.995 C23.011,12.405 19.420,15.989 15.000,15.989 ZM15.000,1.985 C11.750,1.985 9.010,4.679 9.010,7.994 C9.010,11.309 11.695,14.003 15.000,14.003 C18.305,14.003 20.990,11.309 20.990,7.994 C20.990,4.679 18.250,1.985 15.000,1.985 ZM9.131,15.777 C9.428,16.348 9.211,17.057 8.640,17.354 C4.749,19.394 2.331,23.411 2.331,27.834 C2.331,28.479 1.811,28.999 1.166,28.999 C0.520,28.999 -0.000,28.479 -0.000,27.834 C-0.000,22.537 2.897,17.731 7.560,15.285 C8.126,14.988 8.834,15.211 9.131,15.777 ZM16.000,18.000 L19.000,28.000 L15.000,33.000 L11.000,28.000 L14.000,18.000 L16.000,18.000 ZM15.000,29.999 L17.000,28.000 L15.000,21.000 L13.000,28.000 L15.000,29.999 Z" class="cls-1"/>
</svg>
