<svg xmlns="http://www.w3.org/2000/svg" xmlns:xlink="http://www.w3.org/1999/xlink" preserveAspectRatio="xMidYMid" width="60" height="60" viewBox="0 0 60 60">
  <defs>
    <style>
      .cls-1 {
        fill: #fff;
        fill-rule: evenodd;
      }
    </style>
  </defs>
  <g>
    <path d="M60.000,30.000 C60.000,37.977 56.866,45.207 51.788,50.581 L56.067,54.860 L55.360,55.567 L51.105,51.312 C45.684,56.680 38.232,60.000 30.000,60.000 C22.023,60.000 14.793,56.866 9.419,51.788 L5.640,55.567 L4.933,54.860 L8.688,51.105 C3.320,45.684 0.000,38.232 0.000,30.000 C0.000,21.768 3.320,14.316 8.688,8.895 L4.933,5.140 L5.640,4.433 L9.419,8.212 C14.793,3.134 22.023,0.000 30.000,0.000 C38.231,0.000 45.684,3.320 51.105,8.688 L54.360,5.433 L55.067,6.140 L51.788,9.419 C56.866,14.793 60.000,22.023 60.000,30.000 ZM30.000,59.000 C37.955,59.000 45.158,55.792 50.398,50.605 L47.569,47.776 C43.054,52.240 36.851,55.000 30.000,55.000 C23.404,55.000 17.422,52.426 12.955,48.252 L10.126,51.081 C15.319,55.978 22.299,59.000 30.000,59.000 ZM54.000,30.000 C54.000,16.745 43.255,6.000 30.000,6.000 C16.745,6.000 6.000,16.745 6.000,30.000 C6.000,43.255 16.745,54.000 30.000,54.000 C43.255,54.000 54.000,43.255 54.000,30.000 ZM9.395,9.602 C4.208,14.842 1.000,22.045 1.000,30.000 C1.000,37.955 4.208,45.158 9.395,50.398 L12.224,47.569 C7.760,43.053 5.000,36.851 5.000,30.000 C5.000,23.149 7.760,16.946 12.224,12.431 L9.395,9.602 ZM30.000,1.000 C22.299,1.000 15.319,4.022 10.126,8.919 L12.955,11.748 C17.422,7.574 23.404,5.000 30.000,5.000 C36.851,5.000 43.053,7.760 47.569,12.224 L50.398,9.395 C45.158,4.208 37.955,1.000 30.000,1.000 ZM51.081,10.126 L48.252,12.955 C52.426,17.422 55.000,23.404 55.000,30.000 C55.000,36.596 52.426,42.578 48.252,47.045 L51.081,49.874 C55.978,44.681 59.000,37.701 59.000,30.000 C59.000,22.299 55.978,15.319 51.081,10.126 Z" class="cls-1"/>
    <path d="M19.500,33.499 L19.500,32.500 L40.000,28.499 L40.000,29.500 L19.500,33.499 ZM37.126,21.911 L22.374,21.911 L22.374,30.466 L21.000,30.730 L21.000,17.678 C21.000,16.201 22.216,15.000 23.711,15.000 L35.789,15.000 C37.284,15.000 38.500,16.201 38.500,17.678 L38.500,27.365 L37.126,27.629 L37.126,21.911 ZM37.126,17.678 C37.126,16.950 36.526,16.357 35.789,16.357 L23.711,16.357 C22.974,16.357 22.374,16.950 22.374,17.678 L22.374,20.553 L37.126,20.553 L37.126,17.678 ZM25.461,17.743 C25.858,17.743 26.182,18.062 26.182,18.455 C26.182,18.848 25.858,19.168 25.461,19.168 C25.063,19.168 24.740,18.848 24.740,18.455 C24.740,18.062 25.063,17.743 25.461,17.743 ZM27.838,17.776 L31.662,17.776 C32.042,17.776 32.349,18.080 32.349,18.455 C32.349,18.830 32.042,19.134 31.662,19.134 L27.838,19.134 C27.458,19.134 27.151,18.830 27.151,18.455 C27.151,18.080 27.458,17.776 27.838,17.776 ZM22.374,38.088 L37.126,38.088 L37.126,31.629 L38.500,31.365 L38.500,42.321 C38.500,43.798 37.284,45.000 35.789,45.000 L23.711,45.000 C22.216,45.000 21.000,43.798 21.000,42.321 L21.000,34.730 L22.374,34.466 L22.374,38.088 ZM22.374,42.321 C22.374,43.049 22.974,43.642 23.711,43.642 L35.789,43.642 C36.526,43.642 37.126,43.049 37.126,42.321 L37.126,39.445 L22.374,39.445 L22.374,42.321 ZM30.465,42.223 L29.035,42.223 C28.656,42.223 28.348,41.919 28.348,41.544 C28.348,41.169 28.656,40.865 29.035,40.865 L30.465,40.865 C30.844,40.865 31.152,41.169 31.152,41.544 C31.152,41.919 30.844,42.223 30.465,42.223 Z" class="cls-1"/>
  </g>
</svg>
