<svg xmlns="http://www.w3.org/2000/svg" xmlns:xlink="http://www.w3.org/1999/xlink" preserveAspectRatio="xMidYMid" width="41" height="60" viewBox="0 0 41 60">
  <defs>
    <style>
      .cls-1 {
        fill: #fff;
        fill-rule: evenodd;
      }
    </style>
  </defs>
  <path d="M-0.000,36.999 L-0.000,34.999 L41.000,26.999 L41.000,29.000 L-0.000,36.999 ZM35.252,13.822 L5.748,13.822 L5.748,30.932 L3.000,31.461 L3.000,5.356 C3.000,2.403 5.432,-0.001 8.422,-0.001 L32.577,-0.001 C35.567,-0.001 38.000,2.403 38.000,5.356 L38.000,24.730 L35.252,25.258 L35.252,13.822 ZM35.252,5.356 C35.252,3.900 34.052,2.714 32.577,2.714 L8.422,2.714 C6.948,2.714 5.748,3.900 5.748,5.356 L5.748,11.107 L35.252,11.107 L35.252,5.356 ZM11.921,5.486 C12.717,5.486 13.363,6.125 13.363,6.911 C13.363,7.697 12.717,8.336 11.921,8.336 C11.126,8.336 10.479,7.697 10.479,6.911 C10.479,6.125 11.126,5.486 11.921,5.486 ZM16.675,5.553 L24.325,5.553 C25.083,5.553 25.699,6.161 25.699,6.911 C25.699,7.661 25.083,8.268 24.325,8.268 L16.675,8.268 C15.916,8.268 15.301,7.661 15.301,6.911 C15.301,6.161 15.916,5.553 16.675,5.553 ZM5.748,46.176 L35.252,46.176 L35.252,33.259 L38.000,32.730 L38.000,54.642 C38.000,57.596 35.567,59.999 32.577,59.999 L8.422,59.999 C5.433,59.999 3.000,57.596 3.000,54.642 L3.000,39.461 L5.748,38.932 L5.748,46.176 ZM5.748,54.642 C5.748,56.099 6.948,57.284 8.422,57.284 L32.577,57.284 C34.052,57.284 35.252,56.099 35.252,54.642 L35.252,48.891 L5.748,48.891 L5.748,54.642 ZM21.930,54.445 L19.070,54.445 C18.311,54.445 17.696,53.838 17.696,53.088 C17.696,52.338 18.311,51.730 19.070,51.730 L21.930,51.730 C22.689,51.730 23.304,52.338 23.304,53.088 C23.304,53.838 22.689,54.445 21.930,54.445 Z" class="cls-1"/>
</svg>
