<svg xmlns="http://www.w3.org/2000/svg" xmlns:xlink="http://www.w3.org/1999/xlink" preserveAspectRatio="xMidYMid" width="30" height="30" viewBox="0 0 30 30">
  <defs>
    <style>
      .cls-1 {
        fill: #fff;
        fill-rule: evenodd;
      }
    </style>
  </defs>
  <path d="M30.000,11.999 L30.000,17.999 L26.620,17.999 C26.336,19.099 25.893,20.132 25.329,21.085 L27.728,23.484 L23.485,27.727 L21.081,25.323 C20.129,25.883 19.097,26.324 18.000,26.606 L18.000,29.999 L12.000,29.999 L12.000,26.606 C10.903,26.324 9.871,25.883 8.919,25.323 L6.515,27.727 L2.272,23.484 L4.671,21.085 C4.107,20.132 3.664,19.099 3.380,17.999 L-0.000,17.999 L-0.000,11.999 L3.380,11.999 C3.664,10.900 4.107,9.866 4.672,8.913 L2.272,6.514 L6.515,2.271 L8.920,4.676 C9.872,4.116 10.903,3.676 12.000,3.393 L12.000,-0.001 L18.000,-0.001 L18.000,3.393 C19.096,3.676 20.128,4.116 21.080,4.676 L23.485,2.271 L27.728,6.514 L25.328,8.913 C25.893,9.866 26.336,10.900 26.620,11.999 L30.000,11.999 ZM24.950,14.000 C24.750,11.989 23.954,10.153 22.741,8.672 L24.899,6.514 L23.485,5.100 L21.327,7.258 C19.845,6.046 18.011,5.250 16.000,5.050 L16.000,2.000 L14.000,2.000 L14.000,5.050 C11.989,5.250 10.154,6.046 8.673,7.258 L6.515,5.100 L5.100,6.514 L7.259,8.672 C6.046,10.154 5.250,11.989 5.050,14.000 L2.000,14.000 L2.000,16.000 L5.050,16.000 C5.250,18.011 6.046,19.845 7.258,21.327 L5.100,23.484 L6.515,24.898 L8.672,22.741 C10.154,23.954 11.989,24.750 14.000,24.949 L14.000,28.000 L16.000,28.000 L16.000,24.949 C18.011,24.750 19.846,23.954 21.328,22.741 L23.485,24.898 L24.899,23.484 L22.742,21.327 C23.954,19.846 24.750,18.011 24.949,16.000 L28.000,16.000 L28.000,14.000 L24.950,14.000 ZM15.000,21.000 C11.686,21.000 9.000,18.314 9.000,15.000 C9.000,14.098 9.213,13.251 9.570,12.483 L11.128,14.042 C11.052,14.350 11.000,14.668 11.000,15.000 C11.000,17.209 12.791,19.000 15.000,19.000 C17.209,19.000 19.000,17.209 19.000,15.000 C19.000,12.791 17.209,11.000 15.000,11.000 C14.391,11.000 13.821,11.146 13.305,11.389 L11.836,9.921 C12.757,9.346 13.835,9.000 15.000,9.000 C18.314,9.000 21.000,11.686 21.000,15.000 C21.000,18.314 18.314,21.000 15.000,21.000 Z" class="cls-1"/>
</svg>
