<svg xmlns="http://www.w3.org/2000/svg" xmlns:xlink="http://www.w3.org/1999/xlink" preserveAspectRatio="xMidYMid" width="34" height="34" viewBox="0 0 34 34">
  <defs>
    <style>
      .cls-1 {
        fill: #fff;
        fill-rule: evenodd;
      }
    </style>
  </defs>
  <path d="M20.687,19.169 C20.805,19.451 20.750,19.789 20.522,20.019 C20.221,20.322 19.734,20.322 19.434,20.019 L18.146,18.721 L10.178,26.756 L9.378,28.980 C9.339,29.087 9.278,29.184 9.198,29.264 L4.727,33.772 C4.577,33.924 4.380,33.999 4.183,33.999 C3.987,33.999 3.790,33.924 3.639,33.772 L0.730,30.839 C0.586,30.693 0.505,30.496 0.505,30.291 C0.505,30.085 0.586,29.888 0.730,29.742 L5.201,25.234 C5.281,25.153 5.377,25.092 5.483,25.053 L7.689,24.246 L15.658,16.212 L14.369,14.913 C14.069,14.610 14.069,14.119 14.369,13.816 C14.598,13.586 14.933,13.531 15.213,13.649 L27.266,1.498 C27.994,0.761 28.965,0.354 29.999,0.353 C30.001,0.353 30.002,0.353 30.004,0.353 C31.037,0.353 32.009,0.758 32.740,1.495 C33.472,2.233 33.875,3.214 33.875,4.257 C33.874,5.299 33.471,6.279 32.740,7.017 L20.687,19.169 ZM8.656,25.465 C8.576,25.546 8.480,25.607 8.374,25.646 L6.168,26.452 L2.362,30.290 L4.183,32.127 L7.990,28.289 L8.790,26.065 C8.828,25.958 8.889,25.861 8.969,25.780 L17.058,17.624 L16.745,17.308 L8.656,25.465 ZM31.653,2.592 C31.212,2.148 30.627,1.904 30.004,1.904 C30.003,1.904 30.002,1.904 30.001,1.904 C29.378,1.905 28.794,2.150 28.355,2.594 L16.341,14.707 L17.284,15.658 C17.286,15.660 17.288,15.661 17.289,15.663 C17.291,15.665 17.293,15.666 17.294,15.668 L19.639,18.032 L31.652,5.919 C32.093,5.475 32.336,4.884 32.336,4.256 C32.336,3.628 32.094,3.037 31.653,2.592 ZM16.130,10.563 C16.431,10.865 16.431,11.356 16.130,11.659 C15.830,11.962 15.343,11.962 15.042,11.659 L14.407,11.019 C14.179,10.788 14.117,10.438 14.254,10.143 C14.678,9.225 14.892,8.275 14.892,7.319 C14.892,5.374 14.053,3.542 12.636,2.276 L12.634,7.353 C12.634,7.607 12.510,7.846 12.302,7.991 L8.653,10.539 C8.389,10.723 8.041,10.723 7.777,10.539 L4.126,7.992 C3.918,7.847 3.794,7.609 3.794,7.354 L3.795,2.277 C2.379,3.542 1.539,5.372 1.538,7.316 C1.538,9.115 2.233,10.806 3.494,12.078 C4.754,13.349 6.429,14.048 8.212,14.048 C8.213,14.048 8.215,14.048 8.217,14.048 C8.830,14.048 10.034,13.749 10.446,13.633 C10.713,13.558 10.999,13.634 11.195,13.832 L13.534,16.190 C13.835,16.493 13.835,16.984 13.534,17.287 C13.384,17.439 13.187,17.515 12.990,17.515 C12.793,17.515 12.596,17.439 12.446,17.287 L10.419,15.243 C9.854,15.384 8.883,15.599 8.218,15.600 C8.216,15.600 8.214,15.600 8.212,15.600 C6.019,15.600 3.957,14.739 2.406,13.175 C0.854,11.610 -0.000,9.529 -0.000,7.316 C0.001,4.335 1.605,1.570 4.186,0.102 C4.425,-0.034 4.716,-0.032 4.952,0.107 C5.189,0.246 5.334,0.501 5.334,0.777 L5.333,6.948 L8.215,8.958 L11.095,6.946 L11.098,0.775 C11.099,0.499 11.244,0.244 11.480,0.106 C11.716,-0.033 12.008,-0.035 12.246,0.100 C14.827,1.571 16.431,4.337 16.431,7.319 C16.431,8.326 16.240,9.324 15.863,10.293 L16.130,10.563 ZM18.167,20.862 L28.838,31.622 C29.239,32.027 29.773,32.250 30.339,32.250 C30.340,32.250 30.340,32.250 30.341,32.250 C30.907,32.250 31.441,32.028 31.841,31.623 C32.242,31.219 32.463,30.680 32.462,30.107 C32.461,29.536 32.241,29.000 31.839,28.597 L22.661,19.341 C22.360,19.038 22.360,18.547 22.661,18.244 C22.961,17.941 23.448,17.941 23.749,18.244 L32.926,27.499 C33.618,28.194 33.999,29.120 34.001,30.106 C34.002,31.093 33.621,32.021 32.930,32.720 C32.238,33.417 31.318,33.801 30.341,33.801 C30.340,33.801 30.339,33.801 30.339,33.801 C29.361,33.801 28.441,33.416 27.750,32.719 L17.079,21.959 C16.779,21.656 16.779,21.165 17.079,20.862 C17.380,20.559 17.867,20.559 18.167,20.862 Z" class="cls-1"/>
</svg>
