<svg xmlns="http://www.w3.org/2000/svg" xmlns:xlink="http://www.w3.org/1999/xlink" preserveAspectRatio="xMidYMid" width="30" height="27.97" viewBox="0 0 30 27.97">
  <defs>
    <style>
      .cls-1 {
        fill: #fff;
        fill-rule: evenodd;
      }
    </style>
  </defs>
  <path d="M29.719,11.088 L23.566,17.362 L24.781,26.814 C24.845,27.191 24.683,27.572 24.370,27.792 C24.198,27.910 23.704,28.086 23.312,27.846 L14.999,23.363 L6.686,27.851 C6.353,28.037 5.941,28.012 5.628,27.792 C5.314,27.572 5.153,27.191 5.216,26.814 L6.431,17.362 L0.283,11.088 C0.024,10.819 -0.069,10.427 0.053,10.075 C0.171,9.718 0.479,9.459 0.852,9.405 L9.924,8.324 L11.928,4.601 L13.208,6.584 L11.506,9.659 C11.364,9.962 11.080,10.173 10.752,10.222 L3.075,11.088 L8.214,16.325 C8.434,16.550 8.537,16.868 8.483,17.181 L7.518,25.101 L14.514,21.342 C14.817,21.156 15.224,21.200 15.484,21.347 L22.479,25.106 L21.514,17.186 C21.465,16.873 21.563,16.555 21.784,16.330 L26.922,11.093 L19.246,10.227 C18.918,10.178 18.634,9.962 18.492,9.664 L14.999,3.351 L14.855,3.610 L13.550,1.589 L14.098,0.572 C14.259,0.224 14.612,-0.001 14.999,-0.001 C15.386,-0.001 15.738,0.224 15.905,0.572 L20.078,8.324 L29.151,9.405 C29.523,9.463 29.827,9.718 29.949,10.075 C30.067,10.433 29.978,10.824 29.719,11.088 Z" class="cls-1"/>
</svg>
