<svg xmlns="http://www.w3.org/2000/svg" xmlns:xlink="http://www.w3.org/1999/xlink" preserveAspectRatio="xMidYMid" width="52" height="46" viewBox="0 0 52 46">
  <defs>
    <style>
      .cls-1 {
        fill: #fff;
        fill-rule: evenodd;
      }
    </style>
  </defs>
  <path d="M49.000,29.999 C48.146,29.999 47.380,29.639 46.833,29.066 C44.519,35.879 38.955,41.187 31.984,43.153 C31.903,44.737 30.604,46.000 29.000,46.000 L23.000,46.000 C21.343,46.000 20.000,44.657 20.000,43.000 C20.000,41.343 21.343,40.000 23.000,40.000 L29.000,40.000 C29.999,40.000 30.878,40.493 31.423,41.244 C39.831,38.879 46.000,31.165 46.000,22.000 C46.000,10.954 37.046,2.000 26.000,2.000 C14.954,2.000 6.000,10.954 6.000,21.999 L6.000,21.999 L6.000,26.999 C6.000,28.656 4.657,29.999 3.000,29.999 C1.343,29.999 -0.000,28.656 -0.000,26.999 L-0.000,21.000 L-0.000,19.000 L4.239,19.000 C5.703,8.272 14.871,-0.000 26.000,-0.000 C37.129,-0.000 46.297,8.272 47.761,19.000 L52.000,19.000 L52.000,21.000 L52.000,26.999 C52.000,28.656 50.657,29.999 49.000,29.999 ZM29.000,41.999 L23.000,41.999 C22.448,41.999 22.000,42.447 22.000,42.999 C22.000,43.552 22.448,44.000 23.000,44.000 L29.000,44.000 C29.552,44.000 30.000,43.552 30.000,42.999 C30.000,42.447 29.552,41.999 29.000,41.999 ZM4.000,21.000 L2.000,21.000 L2.000,26.999 C2.000,27.552 2.448,27.999 3.000,27.999 C3.552,27.999 4.000,27.552 4.000,26.999 L4.000,21.000 ZM48.000,21.000 L48.000,26.999 C48.000,27.552 48.448,27.999 49.000,27.999 C49.552,27.999 50.000,27.552 50.000,26.999 L50.000,21.000 L48.000,21.000 Z" class="cls-1"/>
</svg>
