<svg xmlns="http://www.w3.org/2000/svg" xmlns:xlink="http://www.w3.org/1999/xlink" preserveAspectRatio="xMidYMid" width="36" height="36" viewBox="0 0 36 36">
  <defs>
    <style>
      .cls-1 {
        fill: #fff;
        fill-rule: evenodd;
      }
    </style>
  </defs>
  <path d="M18.000,36.000 C8.059,36.000 -0.000,27.941 -0.000,18.000 C-0.000,8.059 8.059,-0.000 18.000,-0.000 C27.941,-0.000 36.000,8.059 36.000,18.000 C36.000,27.941 27.941,36.000 18.000,36.000 ZM18.000,2.000 C9.163,2.000 2.000,9.163 2.000,18.000 C2.000,26.836 9.163,34.000 18.000,34.000 C26.836,34.000 34.000,26.836 34.000,18.000 C34.000,9.163 26.836,2.000 18.000,2.000 ZM19.168,17.717 C20.232,18.154 20.969,18.614 21.378,19.098 C21.787,19.583 21.991,20.175 21.991,20.875 C21.991,21.742 21.695,22.457 21.101,23.019 C20.507,23.581 19.650,23.928 18.529,24.060 L18.529,26.007 L17.412,26.007 L17.412,24.114 C16.022,24.090 14.882,23.862 13.992,23.432 L13.992,21.539 C14.473,21.790 15.036,22.001 15.681,22.171 C16.325,22.342 16.902,22.430 17.412,22.436 L17.412,19.081 L16.706,18.803 C15.787,18.426 15.116,17.976 14.693,17.452 C14.270,16.929 14.059,16.282 14.059,15.510 C14.059,14.685 14.360,14.006 14.962,13.474 C15.564,12.942 16.381,12.618 17.412,12.505 L17.412,10.998 L18.529,10.998 L18.529,12.478 C19.667,12.520 20.745,12.765 21.765,13.213 L21.151,14.855 C21.151,14.855 19.398,14.263 18.529,14.191 L18.529,17.457 L19.168,17.717 ZM18.529,22.364 C19.515,22.203 20.008,21.752 20.008,21.010 C20.008,20.662 19.895,20.377 19.668,20.153 C19.441,19.928 19.061,19.712 18.529,19.502 L18.529,22.364 ZM17.412,14.227 C16.963,14.299 16.277,14.135 15.983,14.400 C15.689,14.666 16.034,15.164 16.034,15.492 C16.034,15.833 16.133,16.117 16.332,16.344 C16.531,16.572 16.891,16.796 17.412,17.017 L17.412,14.227 ZM7.001,17.972 C6.368,17.989 5.708,17.999 5.000,17.999 C5.000,10.820 10.820,5.000 18.000,5.000 C18.000,5.701 18.005,6.365 18.009,7.000 C18.006,7.000 18.003,7.000 18.000,7.000 C11.934,7.000 7.016,11.910 7.001,17.972 Z" class="cls-1"/>
</svg>
