<svg xmlns="http://www.w3.org/2000/svg" xmlns:xlink="http://www.w3.org/1999/xlink" preserveAspectRatio="xMidYMid" width="35" height="60" viewBox="0 0 35 60">
  <defs>
    <style>
      .cls-1 {
        fill: #fff;
        fill-rule: evenodd;
      }
    </style>
  </defs>
  <path d="M29.577,59.999 L5.422,59.999 C2.433,59.999 -0.000,57.596 -0.000,54.642 L-0.000,5.356 C-0.000,2.403 2.432,-0.001 5.422,-0.001 L29.577,-0.001 C32.567,-0.001 35.000,2.403 35.000,5.356 L35.000,54.642 C35.000,57.596 32.567,59.999 29.577,59.999 ZM32.252,5.356 C32.252,3.900 31.052,2.714 29.577,2.714 L5.422,2.714 C3.948,2.714 2.748,3.900 2.748,5.356 L3.000,11.000 L3.000,47.999 L2.748,54.642 C2.748,56.099 3.948,57.284 5.422,57.284 L29.577,57.284 C31.052,57.284 32.252,56.099 32.252,54.642 L32.000,47.999 L32.000,11.000 L32.252,5.356 ZM9.000,31.000 L30.000,23.000 L30.000,25.000 L9.000,32.999 L9.000,31.000 ZM12.000,25.000 L20.000,22.000 L20.000,23.999 L12.000,27.000 L12.000,25.000 ZM8.999,11.989 C7.905,11.989 7.014,11.089 7.014,9.985 C7.014,8.879 7.905,7.980 8.999,7.980 C10.094,7.980 10.984,8.879 10.984,9.985 C10.984,11.089 10.094,11.989 8.999,11.989 ZM25.000,32.000 L5.000,40.000 L5.000,38.000 L25.000,30.000 L25.000,32.000 ZM14.000,41.000 L9.000,43.000 L9.000,41.000 L14.000,39.000 L14.000,41.000 Z" class="cls-1"/>
</svg>
