<svg xmlns="http://www.w3.org/2000/svg" xmlns:xlink="http://www.w3.org/1999/xlink" preserveAspectRatio="xMidYMid" width="60" height="60" viewBox="0 0 60 60">
  <defs>
    <style>
      .cls-1 {
        fill: #fff;
        fill-rule: evenodd;
      }
    </style>
  </defs>
  <g>
    <path d="M60.000,30.000 C60.000,37.977 56.866,45.207 51.788,50.581 L56.067,54.860 L55.360,55.567 L51.105,51.312 C45.684,56.680 38.232,60.000 30.000,60.000 C22.023,60.000 14.793,56.866 9.419,51.788 L5.640,55.567 L4.933,54.860 L8.688,51.105 C3.320,45.684 0.000,38.232 0.000,30.000 C0.000,21.768 3.320,14.316 8.688,8.895 L4.933,5.140 L5.640,4.433 L9.419,8.212 C14.793,3.134 22.023,0.000 30.000,0.000 C38.231,0.000 45.684,3.320 51.105,8.688 L54.360,5.433 L55.067,6.140 L51.788,9.419 C56.866,14.793 60.000,22.023 60.000,30.000 ZM30.000,59.000 C37.955,59.000 45.158,55.792 50.398,50.605 L47.569,47.776 C43.054,52.240 36.851,55.000 30.000,55.000 C23.404,55.000 17.422,52.426 12.955,48.252 L10.126,51.081 C15.319,55.978 22.299,59.000 30.000,59.000 ZM54.000,30.000 C54.000,16.745 43.255,6.000 30.000,6.000 C16.745,6.000 6.000,16.745 6.000,30.000 C6.000,43.255 16.745,54.000 30.000,54.000 C43.255,54.000 54.000,43.255 54.000,30.000 ZM9.395,9.602 C4.208,14.842 1.000,22.045 1.000,30.000 C1.000,37.955 4.208,45.158 9.395,50.398 L12.224,47.569 C7.760,43.053 5.000,36.851 5.000,30.000 C5.000,23.149 7.760,16.946 12.224,12.431 L9.395,9.602 ZM30.000,1.000 C22.299,1.000 15.319,4.022 10.126,8.919 L12.955,11.748 C17.422,7.574 23.404,5.000 30.000,5.000 C36.851,5.000 43.053,7.760 47.569,12.224 L50.398,9.395 C45.158,4.208 37.955,1.000 30.000,1.000 ZM51.081,10.126 L48.252,12.955 C52.426,17.422 55.000,23.404 55.000,30.000 C55.000,36.596 52.426,42.578 48.252,47.045 L51.081,49.874 C55.978,44.681 59.000,37.701 59.000,30.000 C59.000,22.299 55.978,15.319 51.081,10.126 Z" class="cls-1"/>
    <path d="M42.858,37.500 L36.810,37.500 C36.455,37.500 36.167,37.210 36.167,36.853 C36.167,36.496 36.455,36.206 36.810,36.206 L42.216,36.206 L42.216,24.793 L33.755,24.793 C33.400,24.793 33.113,24.503 33.113,24.146 C33.113,23.789 33.400,23.500 33.755,23.500 L42.858,23.500 C43.212,23.500 43.500,23.789 43.500,24.146 L43.500,36.853 C43.500,37.210 43.212,37.500 42.858,37.500 ZM35.376,30.747 C35.277,30.989 35.043,31.147 34.783,31.147 L29.194,31.147 L34.232,38.202 C34.483,38.455 34.483,38.865 34.232,39.117 C34.107,39.243 33.942,39.307 33.778,39.307 C33.614,39.307 33.449,39.243 33.324,39.117 L27.190,30.957 C27.006,30.772 26.951,30.494 27.050,30.252 C27.150,30.011 27.384,29.853 27.644,29.853 L33.232,29.853 L28.695,22.798 C28.444,22.545 28.444,22.136 28.694,21.883 C28.945,21.631 29.352,21.631 29.603,21.883 L35.237,30.043 C35.421,30.227 35.476,30.506 35.376,30.747 ZM26.617,24.793 L20.210,24.793 L20.210,36.206 L28.672,36.206 C29.027,36.206 29.314,36.496 29.314,36.853 C29.314,37.210 29.027,37.500 28.672,37.500 L19.568,37.500 C19.213,37.500 18.926,37.210 18.926,36.853 L18.926,24.146 C18.926,23.789 19.213,23.500 19.568,23.500 L26.617,23.500 C26.972,23.500 27.259,23.789 27.259,24.146 C27.259,24.503 26.972,24.793 26.617,24.793 ZM17.142,35.323 C16.787,35.323 16.500,35.034 16.500,34.677 L16.500,26.323 C16.500,25.966 16.787,25.676 17.142,25.676 C17.497,25.676 17.784,25.966 17.784,26.323 L17.784,34.677 C17.784,35.034 17.497,35.323 17.142,35.323 Z" class="cls-1"/>
  </g>
</svg>
