<svg xmlns="http://www.w3.org/2000/svg" xmlns:xlink="http://www.w3.org/1999/xlink" preserveAspectRatio="xMidYMid" width="60" height="60" viewBox="0 0 60 60">
  <defs>
    <style>
      .cls-1 {
        fill: #fff;
        fill-rule: evenodd;
      }
    </style>
  </defs>
  <g>
    <path d="M60.000,30.000 C60.000,37.977 56.866,45.207 51.788,50.581 L56.067,54.860 L55.360,55.567 L51.105,51.312 C45.684,56.680 38.232,60.000 30.000,60.000 C22.023,60.000 14.793,56.866 9.419,51.788 L5.640,55.567 L4.933,54.860 L8.688,51.105 C3.320,45.684 0.000,38.232 0.000,30.000 C0.000,21.768 3.320,14.316 8.688,8.895 L4.933,5.140 L5.640,4.433 L9.419,8.212 C14.793,3.134 22.023,0.000 30.000,0.000 C38.231,0.000 45.684,3.320 51.105,8.688 L54.360,5.433 L55.067,6.140 L51.788,9.419 C56.866,14.793 60.000,22.023 60.000,30.000 ZM30.000,59.000 C37.955,59.000 45.158,55.792 50.398,50.605 L47.569,47.776 C43.054,52.240 36.851,55.000 30.000,55.000 C23.404,55.000 17.422,52.426 12.955,48.252 L10.126,51.081 C15.319,55.978 22.299,59.000 30.000,59.000 ZM54.000,30.000 C54.000,16.745 43.255,6.000 30.000,6.000 C16.745,6.000 6.000,16.745 6.000,30.000 C6.000,43.255 16.745,54.000 30.000,54.000 C43.255,54.000 54.000,43.255 54.000,30.000 ZM9.395,9.602 C4.208,14.842 1.000,22.045 1.000,30.000 C1.000,37.955 4.208,45.158 9.395,50.398 L12.224,47.569 C7.760,43.053 5.000,36.851 5.000,30.000 C5.000,23.149 7.760,16.946 12.224,12.431 L9.395,9.602 ZM30.000,1.000 C22.299,1.000 15.319,4.022 10.126,8.919 L12.955,11.748 C17.422,7.574 23.404,5.000 30.000,5.000 C36.851,5.000 43.053,7.760 47.569,12.224 L50.398,9.395 C45.158,4.208 37.955,1.000 30.000,1.000 ZM51.081,10.126 L48.252,12.955 C52.426,17.422 55.000,23.404 55.000,30.000 C55.000,36.596 52.426,42.578 48.252,47.045 L51.081,49.874 C55.978,44.681 59.000,37.701 59.000,30.000 C59.000,22.299 55.978,15.319 51.081,10.126 Z" class="cls-1"/>
    <path d="M40.711,33.999 L40.711,21.293 L18.788,21.293 L18.788,38.708 L39.843,38.708 L33.538,32.376 L31.682,34.240 C31.431,34.492 31.024,34.492 30.773,34.240 L27.460,30.914 L21.539,36.859 C21.288,37.111 20.881,37.111 20.630,36.859 C20.379,36.607 20.379,36.199 20.630,35.946 L27.005,29.544 C27.256,29.292 27.664,29.292 27.915,29.544 L31.227,32.871 L33.083,31.007 C33.334,30.755 33.741,30.755 33.992,31.007 L40.711,37.754 L40.711,37.576 L41.919,39.646 C41.812,39.854 41.603,39.999 41.354,39.999 L18.146,39.999 C17.791,39.999 17.503,39.710 17.503,39.354 L17.503,20.648 C17.503,20.291 17.791,20.002 18.146,20.002 L41.354,20.002 C41.709,20.002 41.997,20.291 41.997,20.648 L41.997,33.999 L40.711,33.999 Z" class="cls-1"/>
  </g>
</svg>
