<svg xmlns="http://www.w3.org/2000/svg" xmlns:xlink="http://www.w3.org/1999/xlink" preserveAspectRatio="xMidYMid" width="910" height="22" viewBox="0 0 910 22">
  <defs>
    <style>
      .cls-1 {
        fill: #fff;
        fill-rule: evenodd;
      }
    </style>
  </defs>
  <path d="M906.735,12.133 C904.552,13.299 901.156,13.882 896.547,13.882 L476.776,13.882 C471.843,13.882 467.679,14.407 464.283,15.461 C460.887,16.513 454.793,22.004 454.793,22.004 C454.793,22.004 453.012,20.206 451.183,18.676 C449.970,17.661 448.433,16.795 446.574,16.081 C444.713,15.366 442.611,14.821 440.267,14.446 C437.921,14.069 435.537,13.882 433.111,13.882 L13.219,13.882 C8.610,13.882 5.255,13.299 3.152,12.133 C1.050,10.967 -0.002,8.806 -0.002,5.647 L-0.002,0.008 L2.424,0.008 L2.424,5.422 C2.424,7.678 3.334,9.275 5.153,10.216 C6.972,11.155 10.389,11.626 15.402,11.626 L435.173,11.626 C436.950,11.626 438.851,11.776 440.874,12.077 C442.894,12.377 444.834,12.867 446.696,13.544 C448.555,14.220 450.213,15.066 451.669,16.081 C453.124,17.097 454.822,18.748 454.822,18.748 C454.822,18.748 458.601,15.292 462.282,13.825 C465.960,12.359 470.105,11.626 474.714,11.626 L894.363,11.626 C897.032,11.626 899.234,11.494 900.974,11.231 C902.712,10.967 904.067,10.591 905.037,10.103 C906.007,9.613 906.674,8.975 907.038,8.186 C907.402,7.396 907.584,6.474 907.584,5.422 L907.584,0.008 L910.010,0.008 L910.010,5.647 C910.010,8.806 908.918,10.967 906.735,12.133 Z" class="cls-1"/>
</svg>
