<svg xmlns="http://www.w3.org/2000/svg" xmlns:xlink="http://www.w3.org/1999/xlink" preserveAspectRatio="xMidYMid" width="288" height="22" viewBox="0 0 288 22">
  <defs>
    <style>
      .cls-1 {
        fill: #fff;
        fill-rule: evenodd;
      }
    </style>
  </defs>
  <path d="M284.735,12.133 C282.552,13.298 279.156,13.881 274.547,13.881 L165.776,13.881 C160.843,13.881 156.679,14.407 153.283,15.461 C149.887,16.513 143.792,22.004 143.792,22.004 C143.792,22.004 142.012,20.206 140.183,18.676 C138.970,17.661 137.433,16.795 135.574,16.081 C133.713,15.366 131.611,14.821 129.267,14.446 C126.921,14.068 124.537,13.881 122.111,13.881 L13.219,13.881 C8.610,13.881 5.255,13.298 3.152,12.133 C1.050,10.966 -0.002,8.806 -0.002,5.647 L-0.002,0.007 L2.424,0.007 L2.424,5.422 C2.424,7.678 3.334,9.274 5.153,10.216 C6.972,11.155 10.389,11.625 15.402,11.625 L124.173,11.625 C125.950,11.625 127.851,11.775 129.874,12.077 C131.894,12.376 133.834,12.866 135.696,13.543 C137.555,14.220 139.213,15.066 140.668,16.081 C142.124,17.096 143.822,18.747 143.822,18.747 C143.822,18.747 147.601,15.292 151.282,13.825 C154.960,12.359 159.105,11.625 163.714,11.625 L272.363,11.625 C275.032,11.625 277.234,11.494 278.974,11.231 C280.712,10.966 282.067,10.591 283.037,10.103 C284.007,9.613 284.674,8.975 285.038,8.185 C285.402,7.396 285.584,6.474 285.584,5.422 L285.584,0.007 L288.010,0.007 L288.010,5.647 C288.010,8.806 286.918,10.966 284.735,12.133 Z" class="cls-1"/>
</svg>
