<svg xmlns="http://www.w3.org/2000/svg" xmlns:xlink="http://www.w3.org/1999/xlink" preserveAspectRatio="xMidYMid" width="24" height="24" viewBox="0 0 24 24">
  <defs>
    <style>
      .cls-1 {
        fill: #498cd0;
        fill-rule: evenodd;
      }
    </style>
  </defs>
  <path d="M23.458,18.991 L19.753,15.275 C19.015,14.538 17.793,14.560 17.029,15.326 L15.162,17.198 C15.044,17.132 14.923,17.064 14.794,16.992 C13.616,16.337 12.002,15.440 10.304,13.735 C8.601,12.028 7.705,10.408 7.050,9.225 C6.981,9.100 6.914,8.979 6.849,8.864 L8.102,7.610 L8.718,6.991 C9.483,6.224 9.504,4.999 8.767,4.260 L5.062,0.543 C4.326,-0.195 3.103,-0.172 2.338,0.595 L1.294,1.648 L1.323,1.676 C0.973,2.124 0.680,2.641 0.462,3.198 C0.261,3.729 0.136,4.235 0.079,4.742 C-0.410,8.809 1.443,12.527 6.474,17.571 C13.427,24.543 19.030,24.016 19.272,23.991 C19.799,23.927 20.303,23.801 20.816,23.602 C21.367,23.385 21.882,23.093 22.328,22.742 L22.351,22.763 L23.409,21.724 C24.173,20.957 24.194,19.731 23.458,18.991 Z" class="cls-1"/>
</svg>
