<svg xmlns="http://www.w3.org/2000/svg" xmlns:xlink="http://www.w3.org/1999/xlink" preserveAspectRatio="xMidYMid" width="64" height="70" viewBox="0 0 64 70">
  <defs>
    <style>
      .cls-1 {
        fill: #fff;
        fill-rule: evenodd;
      }
    </style>
  </defs>
  <path d="M56.857,50.439 L45.992,47.679 C45.951,47.617 45.907,47.557 45.854,47.503 L42.617,44.206 L42.617,41.050 C42.886,40.772 43.150,40.482 43.407,40.181 C46.427,36.630 48.242,31.847 48.519,26.712 C48.531,26.505 48.541,26.300 48.551,26.094 C48.585,25.415 48.616,24.773 48.680,24.126 L48.680,24.126 L49.751,13.215 C50.083,9.842 48.992,6.467 46.758,3.954 C44.524,1.441 41.334,-0.000 38.005,-0.000 L25.995,-0.000 C22.666,-0.000 19.476,1.441 17.242,3.954 C15.008,6.467 13.917,9.843 14.248,13.215 L15.319,24.118 C15.383,24.768 15.415,25.415 15.449,26.101 C15.459,26.304 15.469,26.508 15.480,26.712 C15.757,31.847 17.573,36.630 20.593,40.181 C20.849,40.482 21.113,40.772 21.382,41.050 L21.382,44.206 L18.146,47.502 C18.094,47.555 18.051,47.614 18.011,47.674 L7.142,50.439 C2.537,51.611 0.000,54.489 0.000,58.543 L0.000,66.447 C0.000,68.406 1.565,69.999 3.490,69.999 L60.510,69.999 C62.435,69.999 64.000,68.406 64.000,66.447 L64.000,58.543 C64.000,54.489 61.463,51.611 56.857,50.439 ZM30.812,62.743 L33.188,62.743 C33.271,62.743 33.353,62.738 33.434,62.733 L34.270,67.732 L29.730,67.732 L30.566,62.733 C30.647,62.738 30.729,62.743 30.812,62.743 ZM34.450,59.190 C34.450,59.899 33.884,60.475 33.188,60.475 L30.812,60.475 C30.116,60.475 29.550,59.899 29.550,59.190 L29.550,57.378 L32.000,55.715 L34.450,57.378 L34.450,59.190 ZM23.610,42.995 C26.129,44.828 29.011,45.810 32.000,45.810 C34.989,45.810 37.870,44.828 40.390,42.995 L40.390,44.206 L32.000,52.748 L23.610,44.206 L23.610,42.995 ZM36.188,55.831 C36.187,55.831 36.185,55.830 36.184,55.829 L33.748,54.175 L41.503,46.279 L43.686,48.503 C42.950,49.856 41.220,53.026 38.777,57.498 C38.772,57.507 38.763,57.525 38.735,57.531 C38.704,57.539 38.681,57.524 38.674,57.519 L36.188,55.831 ZM18.893,5.476 C20.706,3.437 23.294,2.267 25.995,2.267 L38.005,2.267 C40.706,2.267 43.294,3.437 45.107,5.476 C46.919,7.515 47.804,10.253 47.535,12.989 L46.857,19.893 C45.352,16.242 43.687,13.904 43.589,13.768 C43.235,13.274 42.559,13.157 42.064,13.502 C39.137,15.536 26.102,15.795 21.325,15.723 C21.003,15.717 20.694,15.856 20.479,16.100 C19.114,17.651 18.041,19.395 17.244,20.925 L16.465,12.989 C16.196,10.253 17.081,7.515 18.893,5.476 ZM17.704,26.587 C17.694,26.387 17.684,26.186 17.674,25.986 C17.667,25.847 17.660,25.707 17.653,25.567 C17.892,24.873 19.285,21.050 21.811,17.997 C24.893,18.024 37.479,18.004 42.320,15.913 C43.275,17.446 45.287,21.035 46.349,25.540 C46.341,25.687 46.334,25.835 46.326,25.980 C46.316,26.182 46.306,26.384 46.295,26.587 C45.782,36.094 39.503,43.542 32.000,43.542 C24.497,43.542 18.218,36.094 17.704,26.587 ZM22.497,46.279 L30.252,54.175 L27.815,55.829 C27.814,55.830 27.813,55.831 27.812,55.831 L25.326,57.519 C25.319,57.524 25.296,57.540 25.265,57.531 C25.237,57.525 25.228,57.507 25.223,57.499 C22.780,53.026 21.050,49.856 20.314,48.503 L22.497,46.279 ZM2.227,66.447 L2.227,58.543 C2.227,55.547 4.063,53.560 7.682,52.639 L18.518,49.883 C19.160,51.063 20.492,53.502 23.276,58.601 C23.587,59.169 24.120,59.583 24.740,59.735 C24.918,59.779 25.099,59.801 25.279,59.801 C25.731,59.801 26.179,59.666 26.562,59.406 L27.323,58.890 L27.323,59.190 C27.323,60.227 27.762,61.162 28.461,61.812 L27.471,67.732 L12.919,67.732 L12.919,61.609 C12.919,60.983 12.420,60.475 11.805,60.475 C11.190,60.475 10.691,60.983 10.691,61.609 L10.691,67.732 L3.490,67.732 C2.794,67.732 2.227,67.155 2.227,66.447 ZM61.772,66.447 C61.772,67.155 61.206,67.732 60.510,67.732 L53.309,67.732 L53.309,61.609 C53.309,60.983 52.810,60.475 52.195,60.475 C51.580,60.475 51.081,60.983 51.081,61.609 L51.081,67.732 L36.529,67.732 L35.539,61.812 C36.238,61.162 36.677,60.227 36.677,59.190 L36.677,58.890 L37.438,59.406 C37.821,59.666 38.269,59.801 38.721,59.801 C38.901,59.801 39.082,59.779 39.260,59.736 C39.879,59.583 40.413,59.169 40.723,58.601 C43.505,53.508 44.837,51.068 45.480,49.886 L56.317,52.639 C59.937,53.560 61.772,55.547 61.772,58.543 L61.772,66.447 Z" class="cls-1"/>
</svg>
