<svg xmlns="http://www.w3.org/2000/svg" xmlns:xlink="http://www.w3.org/1999/xlink" preserveAspectRatio="xMidYMid" width="24" height="24" viewBox="0 0 24 24">
  <defs>
    <style>
      .cls-1 {
        fill: #999;
        fill-rule: evenodd;
      }
    </style>
  </defs>
  <path d="M20.000,24.000 L4.000,24.000 C1.791,24.000 -0.000,22.209 -0.000,20.000 L-0.000,4.000 C-0.000,1.791 1.791,-0.000 4.000,-0.000 L20.000,-0.000 C22.209,-0.000 24.000,1.791 24.000,4.000 L24.000,20.000 C24.000,22.209 22.209,24.000 20.000,24.000 ZM15.995,2.990 C14.999,2.990 13.866,2.990 13.367,2.990 C9.644,2.990 9.732,6.027 9.732,6.480 C9.732,6.934 9.732,8.961 9.732,8.961 L8.005,8.961 L8.005,11.995 L9.732,11.995 L9.732,21.010 L13.280,21.010 L13.280,11.995 L15.660,11.995 C15.660,11.995 15.883,10.540 15.991,8.950 C15.681,8.950 13.293,8.950 13.293,8.950 C13.293,8.950 13.293,7.185 13.293,6.875 C13.293,6.565 13.680,6.148 14.062,6.148 C14.444,6.148 15.249,6.148 15.995,6.148 C15.995,5.735 15.995,4.308 15.995,2.990 Z" class="cls-1"/>
</svg>
