<svg xmlns="http://www.w3.org/2000/svg" xmlns:xlink="http://www.w3.org/1999/xlink" preserveAspectRatio="xMidYMid" width="24" height="24" viewBox="0 0 24 24">
  <defs>
    <style>
      .cls-1 {
        fill: #999;
        fill-rule: evenodd;
      }
    </style>
  </defs>
  <path d="M20.000,24.000 L4.000,24.000 C1.791,24.000 -0.000,22.209 -0.000,20.000 L-0.000,4.000 C-0.000,1.791 1.791,-0.000 4.000,-0.000 L20.000,-0.000 C22.209,-0.000 24.000,1.791 24.000,4.000 L24.000,20.000 C24.000,22.209 22.209,24.000 20.000,24.000 ZM18.997,11.666 L18.997,11.666 L12.465,11.666 L12.465,14.002 L16.451,14.002 C15.856,16.032 14.088,17.505 11.999,17.505 C9.422,17.505 7.333,15.264 7.333,12.500 C7.333,9.735 9.422,7.494 11.999,7.494 C13.296,7.494 14.470,8.063 15.316,8.980 L16.896,7.137 C15.634,5.810 13.906,4.992 11.999,4.992 C8.133,4.992 5.000,8.353 5.000,12.500 C5.000,16.646 8.133,20.008 11.999,20.008 C15.385,20.008 18.349,17.429 18.997,14.002 L18.997,11.666 Z" class="cls-1"/>
</svg>
