<svg xmlns="http://www.w3.org/2000/svg" xmlns:xlink="http://www.w3.org/1999/xlink" preserveAspectRatio="xMidYMid" width="30" height="32" viewBox="0 0 30 32">
  <defs>
    <style>
      .cls-1 {
        fill: #03499a;
        fill-rule: evenodd;
      }
    </style>
  </defs>
  <path d="M30.000,17.453 C30.000,25.487 23.284,32.000 15.000,32.000 C6.716,32.000 -0.000,25.487 -0.000,17.453 C-0.000,9.419 6.716,2.906 15.000,2.906 C15.000,1.993 15.000,1.031 15.000,-0.000 C20.603,-0.000 25.608,2.482 28.909,6.375 C28.105,7.053 27.352,7.684 26.638,8.282 C28.738,10.785 30.000,13.975 30.000,17.453 ZM3.000,17.453 C3.000,23.882 8.373,29.094 15.000,29.094 C21.627,29.094 27.000,23.882 27.000,17.453 C27.000,14.699 26.009,12.172 24.360,10.179 C14.975,17.961 15.000,17.454 15.000,17.454 C15.000,17.362 15.000,16.237 15.000,5.812 C8.373,5.812 3.000,11.024 3.000,17.453 Z" class="cls-1"/>
</svg>
