<svg xmlns="http://www.w3.org/2000/svg" xmlns:xlink="http://www.w3.org/1999/xlink" preserveAspectRatio="xMidYMid" width="10" height="10" viewBox="0 0 10 10">
  <defs>
    <style>
      .cls-1 {
        fill: #fff;
        fill-rule: evenodd;
      }
    </style>
  </defs>
  <path d="M-0.000,10.000 C-0.000,8.352 1.236,7.108 2.479,6.272 C3.168,7.265 4.039,8.000 5.000,8.000 C5.961,8.000 6.831,7.265 7.521,6.272 C8.764,7.108 10.000,8.352 10.000,10.000 C4.666,10.000 6.000,10.000 -0.000,10.000 ZM5.000,6.000 C3.895,6.000 3.000,3.493 3.000,2.250 C3.000,1.007 3.895,-0.000 5.000,-0.000 C6.104,-0.000 7.000,1.007 7.000,2.250 C7.000,3.493 6.104,6.000 5.000,6.000 Z" class="cls-1"/>
</svg>
