<svg xmlns="http://www.w3.org/2000/svg" xmlns:xlink="http://www.w3.org/1999/xlink" preserveAspectRatio="xMidYMid" width="32" height="32.031" viewBox="0 0 32 32.031">
  <defs>
    <style>
      .cls-1 {
        fill: #03499a;
        fill-rule: evenodd;
      }
    </style>
  </defs>
  <path d="M30.739,17.733 C31.027,17.344 31.167,16.842 31.039,16.329 L27.255,1.236 C27.035,0.365 26.182,-0.158 25.355,0.073 L1.169,6.781 C0.345,7.010 -0.154,7.910 0.063,8.781 L3.848,23.871 C4.065,24.743 4.922,25.265 5.749,25.038 L14.294,22.667 L14.294,27.719 C14.294,30.545 18.747,32.025 23.148,32.025 C27.547,32.025 32.004,30.545 32.004,27.719 L32.004,20.056 C32.004,19.135 31.526,18.362 30.739,17.733 ZM28.000,12.532 L28.395,14.103 L23.588,15.440 L23.195,13.865 L28.000,12.532 ZM25.210,2.590 L25.961,5.582 L18.450,7.668 L17.700,4.676 L25.210,2.590 ZM21.840,14.241 L22.224,15.777 C20.447,15.861 18.717,16.187 17.327,16.745 L17.033,15.578 L21.840,14.241 ZM5.103,20.565 L4.710,18.997 L9.516,17.660 L9.912,19.237 L5.103,20.565 ZM10.872,17.286 L15.675,15.951 L16.039,17.389 C15.922,17.465 15.812,17.543 15.705,17.623 L11.263,18.856 L10.872,17.286 ZM30.401,27.595 C30.401,29.242 27.155,30.578 23.148,30.578 C19.145,30.578 15.896,29.242 15.896,27.595 L15.896,25.739 C15.896,25.677 15.931,25.620 15.941,25.561 C16.170,27.124 19.292,28.363 23.148,28.363 C27.006,28.363 30.129,27.124 30.357,25.561 C30.366,25.620 30.401,25.677 30.401,25.739 L30.401,27.595 ZM30.401,23.945 C30.401,25.591 27.155,26.925 23.148,26.925 C19.145,26.925 15.896,25.591 15.896,23.945 L15.896,22.089 C15.896,22.028 15.931,21.970 15.941,21.911 C16.170,23.472 19.292,24.715 23.148,24.715 C27.006,24.715 30.129,23.472 30.357,21.911 C30.366,21.970 30.401,22.028 30.401,22.089 L30.401,23.945 ZM23.148,23.036 C19.145,23.036 15.896,21.702 15.896,20.056 C15.896,18.410 19.145,17.076 23.148,17.076 C27.155,17.076 30.401,18.410 30.401,20.056 C30.401,21.702 27.155,23.036 23.148,23.036 Z" class="cls-1"/>
</svg>
