<svg xmlns="http://www.w3.org/2000/svg" xmlns:xlink="http://www.w3.org/1999/xlink" preserveAspectRatio="xMidYMid" width="12" height="10" viewBox="0 0 12 10">
  <defs>
    <style>
      .cls-1 {
        fill: gray;
        fill-rule: evenodd;
      }
    </style>
  </defs>
  <path d="M9.681,2.795 L9.681,1.504 C9.681,0.674 8.991,-0.001 8.126,-0.001 L3.887,-0.001 C3.022,-0.001 2.318,0.674 2.318,1.504 L2.318,2.795 L0.680,2.795 C0.303,2.795 -0.003,3.088 -0.003,3.450 L-0.003,4.875 C-0.003,5.236 0.303,5.530 0.680,5.530 L0.883,5.530 L1.629,9.463 C1.688,9.774 1.971,10.001 2.301,10.001 L9.712,10.001 C10.042,10.001 10.324,9.774 10.384,9.463 L11.129,5.530 L11.319,5.530 C11.696,5.530 12.002,5.236 12.002,4.875 L12.002,3.450 C12.002,3.088 11.696,2.795 11.319,2.795 L9.681,2.795 L9.681,2.795 ZM3.582,1.504 C3.582,1.346 3.722,1.213 3.887,1.213 L8.126,1.213 C8.291,1.213 8.416,1.346 8.416,1.504 L8.416,2.795 L3.582,2.795 L3.582,1.504 Z" class="cls-1"/>
</svg>
