<svg xmlns="http://www.w3.org/2000/svg" xmlns:xlink="http://www.w3.org/1999/xlink" preserveAspectRatio="xMidYMid" width="32" height="31.969" viewBox="0 0 32 31.969">
  <defs>
    <style>
      .cls-1 {
        fill: #03499a;
        fill-rule: evenodd;
      }
    </style>
  </defs>
  <path d="M9.612,25.576 C7.852,25.576 6.413,27.015 6.413,28.774 C6.413,30.533 7.852,31.972 9.612,31.972 C11.372,31.972 12.812,30.533 12.812,28.774 C12.812,27.015 11.372,25.576 9.612,25.576 ZM0.013,-0.007 L0.013,3.191 L3.213,3.191 L8.972,15.343 L6.733,19.181 C6.573,19.660 6.413,20.300 6.413,20.780 C6.413,22.538 7.852,23.977 9.612,23.977 L28.810,23.977 L28.810,20.780 L10.252,20.780 C10.092,20.780 9.932,20.620 9.932,20.460 L9.932,20.300 L11.372,17.582 L23.210,17.582 C24.490,17.582 25.450,16.942 25.930,15.983 L31.689,5.589 C32.009,5.270 32.009,5.110 32.009,4.790 C32.009,3.831 31.369,3.191 30.410,3.191 L6.733,3.191 L5.293,-0.007 L0.013,-0.007 ZM25.610,25.576 C23.850,25.576 22.410,27.015 22.410,28.774 C22.410,30.533 23.850,31.972 25.610,31.972 C27.370,31.972 28.810,30.533 28.810,28.774 C28.810,27.015 27.370,25.576 25.610,25.576 Z" class="cls-1"/>
</svg>
