<svg version="1.1" xmlns="http://www.w3.org/2000/svg" xmlns:xlink="http://www.w3.org/1999/xlink" width="13" height="12" viewBox="0 0 13 12">
<path id="reset-icon" d="M13.000,6.000 L13.000,10.000 C13.000,10.000 11.308,8.731 11.308,8.731 C10.316,10.666 8.325,12.000 6.000,12.000 C2.686,12.000 -0.000,9.314 -0.000,6.000 C-0.000,2.686 2.686,-0.000 6.000,-0.000 C7.862,-0.000 9.505,0.866 10.605,2.197 C10.605,2.197 9.692,2.654 9.692,2.654 C8.777,1.645 7.469,1.000 6.000,1.000 C3.239,1.000 1.000,3.239 1.000,6.000 C1.000,8.761 3.239,11.000 6.000,11.000 C7.996,11.000 9.708,9.823 10.509,8.131 C10.509,8.131 9.000,7.000 9.000,7.000 L13.000,6.000 z" fill="#03499A" />
</svg>
