<svg xmlns="http://www.w3.org/2000/svg" xmlns:xlink="http://www.w3.org/1999/xlink" preserveAspectRatio="xMidYMid" width="32" height="32" viewBox="0 0 32 32">
  <defs>
    <style>
      .cls-1 {
        fill: #03499a;
        fill-rule: evenodd;
      }
    </style>
  </defs>
  <path d="M30.600,19.990 L20.468,31.221 C19.421,32.260 17.730,32.260 16.689,31.221 L1.966,17.449 C1.143,16.679 0.162,15.220 0.091,14.097 C-0.098,11.058 0.035,5.239 0.128,2.154 C0.161,1.030 1.109,0.088 2.237,0.062 C6.189,-0.030 14.562,-0.128 15.340,0.649 L31.552,15.278 C32.593,16.317 31.649,18.945 30.600,19.990 ZM15.398,21.143 C15.883,21.627 16.414,21.832 16.991,21.757 C17.568,21.682 18.180,21.323 18.826,20.679 C19.446,20.060 19.796,19.456 19.875,18.868 C19.954,18.280 19.755,17.749 19.278,17.273 C18.305,16.302 17.174,16.460 15.885,17.746 C15.256,18.373 14.901,18.980 14.821,19.567 C14.740,20.153 14.933,20.679 15.398,21.143 ZM7.567,4.531 C6.684,3.652 5.256,3.652 4.372,4.531 C3.491,5.412 3.491,6.835 4.372,7.714 C5.257,8.593 6.685,8.593 7.567,7.714 C8.449,6.835 8.449,5.411 7.567,4.531 ZM17.417,10.487 C16.443,9.517 15.312,9.674 14.023,10.960 C13.391,11.590 13.035,12.198 12.955,12.785 C12.874,13.372 13.067,13.897 13.532,14.361 C14.017,14.845 14.548,15.050 15.125,14.975 C15.702,14.901 16.315,14.540 16.964,13.893 C17.584,13.274 17.934,12.670 18.013,12.082 C18.092,11.494 17.893,10.963 17.417,10.487 ZM20.704,13.943 L11.086,16.691 L12.102,17.704 L21.720,14.956 L20.704,13.943 ZM14.417,13.496 C14.275,13.355 14.261,13.166 14.374,12.926 C14.487,12.687 14.723,12.389 15.081,12.032 C15.439,11.674 15.737,11.441 15.974,11.331 C16.211,11.221 16.400,11.237 16.541,11.378 C16.812,11.648 16.594,12.134 15.889,12.838 C15.178,13.547 14.687,13.766 14.417,13.496 ZM16.943,18.818 C17.301,18.460 17.599,18.227 17.836,18.117 C18.073,18.007 18.261,18.023 18.403,18.164 C18.673,18.434 18.456,18.920 17.751,19.624 C17.040,20.333 16.549,20.552 16.278,20.282 C16.137,20.141 16.123,19.952 16.236,19.712 C16.349,19.473 16.584,19.175 16.943,18.818 Z" class="cls-1"/>
</svg>
