<svg xmlns="http://www.w3.org/2000/svg" xmlns:xlink="http://www.w3.org/1999/xlink" preserveAspectRatio="xMidYMid" width="32" height="32" viewBox="0 0 32 32">
  <defs>
    <style>
      .cls-1 {
        fill: #03499a;
        fill-rule: evenodd;
      }
    </style>
  </defs>
  <path d="M-0.000,32.000 L-0.000,2.000 L4.000,2.000 L4.000,6.000 L12.000,6.000 L12.000,2.000 L20.000,2.000 L20.000,6.000 L28.000,6.000 L28.000,2.000 L32.000,2.000 L32.000,32.000 L-0.000,32.000 ZM29.000,9.000 L3.000,9.000 L3.000,29.000 L29.000,29.000 L29.000,9.000 ZM9.000,15.000 L5.000,15.000 L5.000,11.000 L9.000,11.000 L9.000,15.000 ZM9.000,21.000 L5.000,21.000 L5.000,17.000 L9.000,17.000 L9.000,21.000 ZM9.000,27.000 L5.000,27.000 L5.000,23.000 L9.000,23.000 L9.000,27.000 ZM15.000,15.000 L11.000,15.000 L11.000,11.000 L15.000,11.000 L15.000,15.000 ZM15.000,21.000 L11.000,21.000 L11.000,17.000 L15.000,17.000 L15.000,21.000 ZM15.000,27.000 L11.000,27.000 L11.000,23.000 L15.000,23.000 L15.000,27.000 ZM21.000,15.000 L17.000,15.000 L17.000,11.000 L21.000,11.000 L21.000,15.000 ZM21.000,21.000 L17.000,21.000 L17.000,17.000 L21.000,17.000 L21.000,21.000 ZM21.000,27.000 L17.000,27.000 L17.000,23.000 L21.000,23.000 L21.000,27.000 ZM27.000,15.000 L23.000,15.000 L23.000,11.000 L27.000,11.000 L27.000,15.000 ZM27.000,21.000 L23.000,21.000 L23.000,17.000 L27.000,17.000 L27.000,21.000 ZM27.000,27.000 L23.000,27.000 L23.000,23.000 L27.000,23.000 L27.000,27.000 ZM22.000,-0.000 L26.000,-0.000 L26.000,4.000 L22.000,4.000 L22.000,-0.000 ZM6.000,-0.000 L10.000,-0.000 L10.000,4.000 L6.000,4.000 L6.000,-0.000 Z" class="cls-1"/>
</svg>
