<svg height="150" viewBox="0 0 150 150" width="150" xmlns="http://www.w3.org/2000/svg"><path d="m0 0h150v150h-150z" fill="#272727"/><g fill="#fff"><path d="m15 79a1.6 1.6 0 0 1 1.5 1l1-.6.8 1.6-1 .6a1.6 1.6 0 0 1 .3 1 1.5 1.5 0 1 1 -3.1 0 1.3 1.3 0 0 1 .1-.5 1.5 1.5 0 0 1 -1.2-1.5 1.6 1.6 0 0 1 1.6-1.6z"/><path d="m37.1 79a1.6 1.6 0 0 0 -1.5 1l-1-.6-.8 1.6 1 .6a1.5 1.5 0 0 0 -.4 1 1.6 1.6 0 0 0 3.1 0 1.7 1.7 0 0 0 -.1-.5 1.5 1.5 0 0 0 1.2-1.5 1.6 1.6 0 0 0 -1.5-1.6z"/><path d="m26.1 65.4a9.8 9.8 0 1 1 -9.8 9.8 9.8 9.8 0 0 1 9.8-9.8z"/></g><path d="m26.1 81.6a5.6 5.6 0 1 0 -5.6-5.6 5.6 5.6 0 0 0 5.6 5.6z" fill="#1f90cf"/><path d="m26.1 79.3a3.3 3.3 0 1 0 -3.3-3.3 3.3 3.3 0 0 0 3.3 3.3z" fill="#333"/><path d="m24.2 78.4a1.4 1.4 0 1 0 -1.4-1.4 1.4 1.4 0 0 0 1.4 1.4z" fill="#fff"/><path d="m28.2 65.2a10 10 0 0 0 -12.1 9.3l2.2.5 4.1.5h3.7a38.4 38.4 0 0 0 10-1.2 10 10 0 0 0 -3.6-7.2l-1.1-.8a9.9 9.9 0 0 0 -3.3-1.3z" fill="#8d51a0"/><path d="m22.4 75.6 8.5-8.5.6-.6a9.9 9.9 0 0 0 -3.3-1.3l-1.7 1.7-8.2 8.2z" fill="#aa74b2"/><path d="m33.5 68.2c1 .3 3.5 1.5 2.2 2.7l-.3.2h-.3c-1.4.3-3.2-1.6-3.9-2.5h-.3a.4.4 0 0 0 -.4.4s0 0 0 0c-.2.1 2.9 4.8 5.3 5.1h.2a3 3 0 0 0 3.2-2.4c.6-3-5-4-6.4-4.2l.6.5z" fill="#fff"/><path d="m66.2 74.2v.3a4.9 4.9 0 0 1 .2 1.6 4.8 4.8 0 0 1 -.2 1.6v.2h.9a2.3 2.3 0 0 1 -.6.9 2.8 2.8 0 0 1 -1.1.7l-1.4.2h-2.8v-.8h.9v-4.7h-.9v-1.8h1.9l1.4.2a3 3 0 0 1 1.1.7 2.8 2.8 0 0 1 .6.9zm2.5 3.7a5.5 5.5 0 0 0 .3-1.8 6.1 6.1 0 0 0 -.3-1.9v-.4a5.2 5.2 0 0 0 -1.4-1.8 5.5 5.5 0 0 0 -1.8-1.1 6.5 6.5 0 0 0 -2.4-.4h-4.2v3.7h.9v4.6h-.9v.9h.9v1.8h4.3a6.3 6.3 0 0 0 2.4-.4 4.9 4.9 0 0 0 3-2.9v-.3zm17.4-.9h-.9v-3.7h-.9v-2.8h-2.3v2.8h.9v3.7h.9v.9h-.9v3.7h6.5v-1.8h-4.2v-1.9h.9zm-19.8-2.8h2.4m42.9-3.7h-6.9v5.5h.9v5.5h6.9v-1.7h-4.6v-2.8h3.7v-.9h-.9v-.9h-3.7v-2.8h4.6zm-9.2 0h-7v8.3h.9v2.8h2.3v-2.8h-.9v-1.3h4.2v-1.9h-4.2v-3.2h4.6v-1.9zm-10.2 0h-2.4v3.7h1.4v7.4h2.3v-7.4h-1.3zm-16.1 0h-2.4l-2.9 7.4h.9l-1.5 3.7h2.3l.3-.2.8-2h4.5l.8 2 .3.2h2.3l-1.5-3.7h-1zm-1.4 2.8.2-.8.2.8.2.7 1.2 3.5h-3.3l1.2-3.5.2-.6zm-22.2-2.8h-3.8v5.5h.9v5.5h2.4v-3.6h1.5a6.2 6.2 0 0 0 2-.3 3.9 3.9 0 0 0 1.4-.8 1.4 1.4 0 0 0 .6-.7h-1a.9.9 0 0 0 .2-.5 4.2 4.2 0 0 0 0-3 2.9 2.9 0 0 0 -.8-1.1 3.8 3.8 0 0 0 -1.4-.7 6.6 6.6 0 0 0 -2-.2zm-1.5 5.6v-3.7h2.4l.7.3.4.6a2.3 2.3 0 0 1 .1.8 2 2 0 0 1 -.5 1.4 2.2 2.2 0 0 1 -1.6.5h-1.5z" fill="#fff"/><path d="m113.5 81.2a.7.7 0 0 1 .1-.3l.2-.2.2-.2h.6a.7.7 0 0 1 .4.4.7.7 0 0 1 0 .6l-.2.2-.2.2h-.3l-.5-.2a.7.7 0 0 1 -.2-.5zm21.1-10.6v6.9l.2.5h.9a3.2 3.2 0 0 1 -.2 1 3.6 3.6 0 0 1 -.7 1.2 3.4 3.4 0 0 1 -1.1.8l-1.4.3a3.5 3.5 0 0 1 -1.5-.3 3 3 0 0 1 -1.1-.8 3.3 3.3 0 0 1 -.7-1.2l-.3-.9v-1.1h-.9v-6.5h-.5v7.4h.9a5 5 0 0 0 .3 1.2 4.3 4.3 0 0 0 .9 1.4 4.2 4.2 0 0 0 1.3 1 4.6 4.6 0 0 0 1.8.3 4.5 4.5 0 0 0 1.8-.3 4.2 4.2 0 0 0 1.3-.9 4.1 4.1 0 0 0 .9-1.4 5.2 5.2 0 0 0 .2-1.2 3.9 3.9 0 0 0 0-.6v-.4h-.9v-6.5h-.9zm-15.7 6v5.1h-.9v-11.2h3a4.7 4.7 0 0 1 2.9.7 2.6 2.6 0 0 1 1 2.2 3 3 0 0 1 -.2 1.2 2.9 2.9 0 0 1 -.6.9l-1 .7-1.3.3.3.3 3.9 4.8h-1.1l-3.6-4.6h-2.3zm0-.5h2l1.3-.2 1-.5a2.2 2.2 0 0 0 .6-.8 2.8 2.8 0 0 0 .2-1.1 2.1 2.1 0 0 0 -.8-1.8 3.8 3.8 0 0 0 -2.2-.7h-2v5.1z" fill="#fff"/></svg>