<svg fill="none" height="119" viewBox="0 0 119 119" width="119" xmlns="http://www.w3.org/2000/svg"><path d="m93.9997 59.1544c-.077 19.3328-15.8424 34.9225-35.1538 34.8453-19.3116-.0772-34.9227-15.8212-34.8456-35.154s15.8424-34.9226 35.1539-34.8454c19.3501.0772 34.9227 15.8213 34.8455 35.1541z" fill="#221f1f"/><path d="m71.6053 76.3262c-3.7004 6.6373-8.2873 12.0782-13.4139 11.9625-3.1994-.0773-6.2446-1.2735-9.0199-3.1643.8867-1.6207 6.4759-9.7243 22.4338-8.7982zm21.4702-17.1719c-.0771 18.7926-15.4185 33.9965-34.2289 33.8808-18.8104-.0772-33.9204-15.3969-33.9204-34.1895 0-12.194 6.0902-20.9535 11.8721-25.6613 7.0926-5.7497 11.9107-1.3506 13.6068 2.0066-.1927-1.4278-.7709-5.5182-2.3513-8.4509 3.4692-1.1962 7.2081-1.8522 11.1011-1.8136 18.8106.1157 33.9976 15.3968 33.9206 34.2279zm-35.8864-19.6029c4.934-3.3572 13.4526-5.2095 17.9624 1.8136-2.7367-16.0528-14.5703-6.8301-17.9624-1.8136zm-6.8612 15.1653c1.0407-1.1576 2.2358-2.3154 3.6234-3.3572 6.1673-4.7464 12.9129-5.9427 15.11-2.6241.8481 1.2734.8866 3.0485.2314 4.978 2.1969-3.6274 2.8908-6.9846 1.5417-8.8368-2.2741-3.0872-9.3282-.9648-15.7652 4.7464-1.8888 1.5821-3.4692 3.3572-4.7413 5.0937zm-10.7543 2.8555c3.1222.5789 6.5142-3.3957 7.5551-8.9525 1.0407-5.5568-.6169-10.4961-3.739-11.1135-3.1222-.5788-6.5143 3.3958-7.555 8.9526-1.0408 5.5181.6167 10.496 3.7389 11.1134zm43.4029-6.7144c-29.8733 20.0275-50.4953 9.8787-50.4953 9.8787-.3084 6.946 11.6023 28.2853 25.7872 28.5555 14.2234.27 24.7081-38.4342 24.7081-38.4342zm-46.2938-4.2833c.9636-5.0937 3.8931-8.7982 6.5528-8.2579 2.6596.5016 4.0474 5.055 3.1222 10.1487-.9636 5.0938-3.8931 8.7982-6.5528 8.2579-2.6982-.5015-4.0859-5.055-3.1222-10.1487zm5.6662 4.3219c1.1949.2701 2.5055-1.1963 2.968-3.2415.4626-2.045-.1541-3.9359-1.349-4.1674-.8094-.1931-1.6575.4243-2.2742 1.4663.5396.27.8094.9648.5396 1.5435-.2312.5402-.7709.8104-1.3106.6946-.2312 1.8137.347 3.4343 1.4262 3.7045z" fill="#05bc52"/></svg>