<svg fill="none" height="150" viewBox="0 0 150 150" width="150" xmlns="http://www.w3.org/2000/svg" xmlns:xlink="http://www.w3.org/1999/xlink"><clipPath id="a"><path d="m31 52h87.16v46.13h-87.16z"/></clipPath><path d="m0 0h150v150h-150z" fill="#272727"/><g clip-path="url(#a)"><path d="m113.78 64.41 4.37 4.59c-2.34 4.05-4.66 8.08-7 12.1l-6.2-1.46c-.836.9262-1.724 1.8043-2.66 2.63l1.49 6.14c-4 2.34-8.09 4.68-12.12 7l-4.63-4.37c-1.2.37-2.4.71-3.63 1l-1.83 6.11h-14l-1.79-6.13c-1.23-.26-2.43-.6-3.63-1l-4.65 4.39c-4-2.34-8.09-4.65-12.12-7l1.49-6.19c-.9357-.8257-1.8238-1.7038-2.66-2.63l-6.2 1.46c-2.34-4-4.66-8-7-12.1l4.37-4.54c-.7728-2.6602-1.3641-5.3697-1.77-8.11 27.0378-5.685 54.9623-5.685 82 0-.409 2.7449-1.02 5.4556-1.83 8.11zm-22.38-6c-.2842 2.8097-1.2787 5.5008-2.89 7.82-1.0281-1.2052-2.4575-1.9977-4.0243-2.2311s-3.1652.1081-4.4999.9613c-1.3347.8533-2.3155 2.1606-2.7614 3.6807-.4459 1.52-.3267 3.1501.3356 4.5891-.9904.1743-1.9943.2613-3 .26-4.162-.0097-8.1745-1.5532-11.2701-4.3352-3.0957-2.782-5.0573-6.6074-5.5099-10.7448-5.8691.4692-11.7102 1.2403-17.5 2.31.4679 1.6938 1.0219 3.3627 1.66 5l-3.86 4.05 2.74 4.74 5.46-1.28c2.0974 2.523 4.424 4.8463 6.95 6.94l-1.29 5.45 4.75 2.74 4.09-3.85c3.0714 1.1588 6.2503 2.0097 9.49 2.54l1.6 5.37h5.46l1.63-5.37c3.2389-.5339 6.4174-1.3847 9.49-2.54l4.06 3.85 4.75-2.74-1.29-5.45c2.526-2.0937 4.853-4.417 6.95-6.94l5.46 1.28 2.74-4.71-3.86-4.08c.63-1.68 1.2-3.31 1.66-5-5.79-1.0697-11.6309-1.8408-17.5-2.31z" fill="#fff"/></g></svg>