<svg viewBox="0 0 150 150" xmlns="http://www.w3.org/2000/svg">
    <g fill="#20315f">
        <path d="m110.59 71.16c-1.27 2.07-2.53 4.15-3.8 6.23l-4.12-6.72a.85.85 0 0 0 -.73-.5h-1.84l5.59 8.88v4.32h2.19v-4.32l5.6-8.9h-1.22a2 2 0 0 0 -1.67 1.01z"/>
        <path d="m51.54 72.57c-.69 2.41-1.42 5.21-2.1 7.72-.85-2.69-1.8-5.68-2.62-8.22a1.31 1.31 0 0 0 -2.11 0c-.84 2.55-1.8 5.65-2.63 8.27-.69-2.53-1.56-5.7-2.27-8.27a.68.68 0 0 0 -.74-.49h-1.84l3.67 11.79h2c.86-2.67 2.09-6.5 2.8-8.77.89 2.84 1.88 5.94 2.79 8.77h2l3.68-11.79h-.93a1.75 1.75 0 0 0 -1.7.99z"/>
        <path d="m62.76 77.27a2.7 2.7 0 0 0 2.09-2.56c0-2.58-2.25-3.11-4.35-3.11h-2.37a1.76 1.76 0 0 0 -1.67 1v10.77h4.44c2.18 0 4.29-1 4.29-3.47 0-1.38-.82-2.26-2.43-2.63zm-4.12-.59v-3.41h1.87c1.24 0 2.16.31 2.16 1.7s-1.09 1.72-2.28 1.72h-1.75zm2.23 5h-2.23v-3.48h2.22c1.11 0 2.17.32 2.17 1.65s-.96 1.8-2.16 1.8z"/>
        <path d="m27.72 72.58v10.79h7.46v-1.76h-5.25v-3.34h4.14v-1.69h-4.14v-3.27h5.25v-1.73h-5.78a1.76 1.76 0 0 0 -1.68 1z"/>
        <path d="m68.33 72.58v10.79h7.44v-1.76h-5.24v-3.34h4.14v-1.69h-4.14v-3.27h5.24v-1.73h-5.77a1.73 1.73 0 0 0 -1.67 1z"/>
        <path d="m96.74 78.33a3.44 3.44 0 0 0 2.61-3.33 3.06 3.06 0 0 0 -2.5-3.15 8.91 8.91 0 0 0 -2.57-.25h-1.42a1.75 1.75 0 0 0 -1.67 1v10.8h2.19v-4.64h.94a.79.79 0 0 1 .8.39c.39.6 1.78 2.9 2.15 3.26 1 1.08 1.83 1 3.14 1l-3-4.36a2.2 2.2 0 0 0 -.67-.72zm-2-1.13h-1.36v-3.92h1.41c1.27 0 2.4.42 2.4 1.86s-1.1 2.06-2.44 2.06z"/>
        <path d="m84.6 78.33a3.43 3.43 0 0 0 2.59-3.33 3 3 0 0 0 -2.48-3.15 9.27 9.27 0 0 0 -2.57-.25h-1.42a1.74 1.74 0 0 0 -1.66 1v10.8h2.2v-4.64h.93a.8.8 0 0 1 .81.39c.39.6 1.78 2.9 2.15 3.26 1 1.08 1.83 1 3.12 1l-3-4.36a2.3 2.3 0 0 0 -.67-.72zm-2-1.13h-1.34v-3.92h1.4c1.27 0 2.41.42 2.41 1.86s-1.07 2.06-2.44 2.06z"/>
        <path d="m22.16 79.74-6.16-7.82a.7.7 0 0 0 -.73-.34h-1.14v11.79h1.95v-8.19c1.62 2.07 4 5.46 5.67 7.22a2.71 2.71 0 0 0 2.36 1v-11.82h-1.95z"/>
        <path d="m112.33 81.88a.78.78 0 0 0 -.76.8.8.8 0 1 0 1.59 0 .79.79 0 0 0 -.83-.8z"/>
        <path d="m135.34 71.58a1.75 1.75 0 0 0 -1.67 1v6.07c0 1.69-.9 3-2.69 3s-2.7-1.28-2.7-3v-7h-2.19v7.06a4.9 4.9 0 0 0 9.79 0v-7.13z"/>
        <path d="m120.83 78.33a3.43 3.43 0 0 0 2.6-3.36 3.05 3.05 0 0 0 -2.43-3.15 9.27 9.27 0 0 0 -2.57-.25h-1.43a1.75 1.75 0 0 0 -1.67 1v10.8h2.21v-4.61h.93a.79.79 0 0 1 .8.39c.39.6 1.78 2.9 2.14 3.26 1.06 1.08 1.83 1 3.15 1l-3-4.36a2.33 2.33 0 0 0 -.73-.72zm-2-1.13h-1.37v-3.92h1.4c1.26 0 2.4.42 2.4 1.86s-1.07 2.06-2.4 2.06z"/>
    </g>
    <path d="m108.86 68.55.75.46-.87 1.39a1.56 1.56 0 1 1 -2.2-.19 1.63 1.63 0 0 1 1-.37 1.47 1.47 0 0 1 .46.07zm-1.3 2.12a.72.72 0 0 1 .72.72.73.73 0 0 1 -.73.72.72.72 0 0 1 0-1.44z"
          fill="#dca522"/>
    <path d="m82.34 59.37c0 .07 0 .12-.17.12a1.56 1.56 0 0 1 -.68 0c-.66-.07-1.46-.21-2.4-.39-.69.61-1.87 1.81-3.55 3.58-2.34 2.47-4.54 3.68-6.54 3.59-1 0-1.56-.54-1.56-1.46a3.21 3.21 0 0 1 .72-1.89 1.24 1.24 0 0 1 -.45-1.12 3 3 0 0 1 1.45-2.49 8.18 8.18 0 0 1 5.07-1.17 28.75 28.75 0 0 1 4.79.66 2.94 2.94 0 0 1 1-.55h.12.1s0 0 0 0a.35.35 0 0 1 -.2.1 2.17 2.17 0 0 0 -.83.51c.82.21 1.56.36 2.21.46a2.07 2.07 0 0 0 .61.05h.19zm-3.57-.31a33.61 33.61 0 0 0 -4.47-.51 8.74 8.74 0 0 0 -4.92 1 2.65 2.65 0 0 0 -1.46 2.28 1.46 1.46 0 0 0 .35 1 6.78 6.78 0 0 1 3.22-2.22 4.78 4.78 0 0 1 2-.3c.77 0 1.16.39 1.13 1 0 .11 0 .17-.09.17s0-.08 0-.22a.66.66 0 0 0 -.27-.6 1.13 1.13 0 0 0 -.75-.25 4.16 4.16 0 0 0 -1.77.43 9.5 9.5 0 0 0 -1.63 1c-1.5 1.06-2.28 2-2.34 2.89s.39 1.34 1.42 1.37q2.1 0 5.92-3.6c1.3-1.25 2-1.88 2-1.91a23.23 23.23 0 0 1 1.76-1.53zm10-.23a1.19 1.19 0 0 1 -.6.9c-.07 0-.12 0-.12 0a.08.08 0 0 1 .06-.1 1.15 1.15 0 0 0 .39-.7c0-.11 0-.22 0-.33a1.46 1.46 0 0 0 -.5-1.2 3.12 3.12 0 0 0 -1.9-.51c-1.38 0-3 .78-5 2.34a36.63 36.63 0 0 0 -4.37 4.07 7 7 0 0 1 1.14-.71 2.8 2.8 0 0 1 1.13-.39c.24 0 .39.09.39.28s-.35.71-1 1.34a12.1 12.1 0 0 0 -.88.87 1.53 1.53 0 0 0 -.39.58.1.1 0 0 0 .1.1 2.11 2.11 0 0 0 .93-.47c.27-.19.64-.49 1.12-.9.07 0 .11-.07.14 0a.11.11 0 0 1 0 .15 13.57 13.57 0 0 1 -1.17 1 1.69 1.69 0 0 1 -1.19.44.34.34 0 0 1 -.27-.39 1.07 1.07 0 0 1 .22-.6 6.43 6.43 0 0 1 1-1c.23-.2.47-.39.69-.6a1.23 1.23 0 0 0 .44-.52.05.05 0 0 0 0 0 2.16 2.16 0 0 0 -1 .39 6.92 6.92 0 0 0 -1.38.89 9.13 9.13 0 0 0 -1.67 2 .18.18 0 0 1 -.13-.18.25.25 0 0 1 0-.24 9.06 9.06 0 0 1 1.41-2 29.88 29.88 0 0 1 4.74-4.32 9.34 9.34 0 0 1 5.28-2.18 3.36 3.36 0 0 1 2.06.57 1.54 1.54 0 0 1 .61 1.25 1.63 1.63 0 0 1 0 .31zm-6.63 3.6c0 .23-.2.47-.58.75a2.77 2.77 0 0 1 -.6.29 2.15 2.15 0 0 1 -.61.13.37.37 0 0 1 -.18 0c-.78.72-1.17 1.26-1.17 1.61a.19.19 0 0 0 .19.19 2.05 2.05 0 0 0 1-.37 9 9 0 0 0 1.41-1.12c.07-.07.12-.08.15 0s0 .09 0 .16a12.43 12.43 0 0 1 -1.27 1 2.11 2.11 0 0 1 -1.35.5.48.48 0 0 1 -.52-.45.78.78 0 0 1 0-.14 2.41 2.41 0 0 1 .85-1.43 7.25 7.25 0 0 1 1.26-.94 2.51 2.51 0 0 1 1.09-.39.27.27 0 0 1 .33.2.17.17 0 0 1 0 .07zm-.21-.13c-.07 0-.3.07-.7.36a8.79 8.79 0 0 0 -1 .84h.09a2 2 0 0 0 1.13-.5 1.13 1.13 0 0 0 .52-.62s0 0 0-.07z"
          fill="#20315f"/>
    <path d="m107.56 70.67a.72.72 0 0 0 -.72.72.72.72 0 1 0 1.44 0 .72.72 0 0 0 -.72-.72z" fill="#fefefe"/>
    <path d="m0 0h150v150h-150z" fill="none"/>
</svg>
