<svg xmlns="http://www.w3.org/2000/svg" width="150" height="150" viewBox="0 0 150 150">
    <rect width="150" height="150" fill="#272727"/>
    <path d="M15,79a1.6,1.6,0,0,1,1.5,1l1-.6L18.3,81l-1,.6a1.6,1.6,0,0,1,.3,1,1.5,1.5,0,1,1-3.1,0,1.3,1.3,0,0,1,.1-0.5,1.5,1.5,0,0,1-1.2-1.5A1.6,1.6,0,0,1,15,79h0Z" fill="#fff"/><path d="M37.1,79a1.6,1.6,0,0,0-1.5,1l-1-.6L33.8,81l1,0.6a1.5,1.5,0,0,0-.4,1,1.6,1.6,0,0,0,3.1,0,1.7,1.7,0,0,0-.1-0.5,1.5,1.5,0,0,0,1.2-1.5A1.6,1.6,0,0,0,37.1,79h0Z" fill="#fff"/><path d="M26.1,65.4a9.8,9.8,0,1,1-9.8,9.8,9.8,9.8,0,0,1,9.8-9.8h0Z" fill="#fff"/><path d="M26.1,81.6A5.6,5.6,0,1,0,20.5,76a5.6,5.6,0,0,0,5.6,5.6h0Z" fill="#1f90cf"/><path d="M26.1,79.3A3.3,3.3,0,1,0,22.8,76a3.3,3.3,0,0,0,3.3,3.3h0Z" fill="#333"/><path d="M24.2,78.4a1.4,1.4,0,1,0-1.4-1.4,1.4,1.4,0,0,0,1.4,1.4h0Z" fill="#fff"/><path d="M28.2,65.2a10,10,0,0,0-12.1,9.3l2.2,0.5,4.1,0.5h3.7a38.4,38.4,0,0,0,10-1.2,10,10,0,0,0-3.6-7.2l-1.1-.8a9.9,9.9,0,0,0-3.3-1.3h0Z" fill="#8d51a0"/><path d="M22.4,75.6l8.5-8.5,0.6-.6a9.9,9.9,0,0,0-3.3-1.3l-1.7,1.7-8.2,8.2,4.1,0.5h0Z" fill="#aa74b2"/><path d="M31.2,68.6h0Zm2.3-.4c1,0.3,3.5,1.5,2.2,2.7l-0.3.2H35.1c-1.4.3-3.2-1.6-3.9-2.5H30.9a0.4,0.4,0,0,0-.4.4s0,0,0,0V69c-0.2.1,2.9,4.8,5.3,5.1h0.2a3,3,0,0,0,3.2-2.4c0.6-3-5-4-6.4-4.2l0.6,0.5h0Z" fill="#fff"/><path d="M66.2,74.2v0.3a4.9,4.9,0,0,1,.2,1.6,4.8,4.8,0,0,1-.2,1.6v0.2h0.9a2.3,2.3,0,0,1-.6.9,2.8,2.8,0,0,1-1.1.7l-1.4.2H61.2V78.9h0.9V74.2H61.2V72.4h1.9l1.4,0.2a3,3,0,0,1,1.1.7,2.8,2.8,0,0,1,.6.9h0Zm2.5,3.7a5.5,5.5,0,0,0,.3-1.8,6.1,6.1,0,0,0-.3-1.9h0V73.8A5.2,5.2,0,0,0,67.3,72a5.5,5.5,0,0,0-1.8-1.1,6.5,6.5,0,0,0-2.4-.4H58.9v3.7h0.9v4.6H58.9v0.9h0.9v1.8h4.3a6.3,6.3,0,0,0,2.4-.4,4.9,4.9,0,0,0,3-2.9V77.9H68.7ZM86.1,77H85.2V73.3H84.3V70.5H82v2.8h0.9V77h0.9v0.9H82.9v3.7h6.5V79.8H85.2V77.9h0.9V77ZM66.3,74.2h2.4m42.9-3.7h-6.9v5.5h0.9v5.5h6.9V79.8h-4.6V77h3.7V76.1h-0.9V75.2h-3.7V72.4h4.6V70.5Zm-9.2,0H95.4v8.3h0.9v2.8h2.3V78.8H97.7V77.5h4.2V75.6H97.7V72.4h4.6V70.5Zm-10.2,0H89.8v3.7h1.4v7.4h2.3V74.2H92.2V70.5Zm-16.1,0H73.7l-2.9,7.4h0.9l-1.5,3.7h2.3l0.3-.2,0.8-2h4.5l0.8,2,0.3,0.2h2.3L80,77.9H79Zm-1.4,2.8,0.2-.8,0.2,0.8L75.3,74l1.2,3.5H73.2L74.4,74l0.2-.6h0ZM52.5,70.5H48.7v5.5h0.9v5.5H52V77.9h1.5a6.2,6.2,0,0,0,2-.3,3.9,3.9,0,0,0,1.4-.8,1.4,1.4,0,0,0,.6-0.7h-1a0.9,0.9,0,0,0,.2-0.5,4.2,4.2,0,0,0,0-3,2.9,2.9,0,0,0-.8-1.1,3.8,3.8,0,0,0-1.4-.7,6.6,6.6,0,0,0-2-.2h0ZM51,76.1V72.4h2.4l0.7,0.3,0.4,0.6a2.3,2.3,0,0,1,.1.8,2,2,0,0,1-.5,1.4,2.2,2.2,0,0,1-1.6.5H51Z" fill="#fff"/><path d="M113.5,81.2a0.7,0.7,0,0,1,.1-0.3l0.2-.2,0.2-.2h0.6a0.7,0.7,0,0,1,.4.4,0.7,0.7,0,0,1,0,.6l-0.2.2-0.2.2h-0.3l-0.5-.2a0.7,0.7,0,0,1-.2-0.5h0Zm21.1-10.6v6.9l0.2,0.5h0.9a3.2,3.2,0,0,1-.2,1,3.6,3.6,0,0,1-.7,1.2,3.4,3.4,0,0,1-1.1.8l-1.4.3a3.5,3.5,0,0,1-1.5-.3,3,3,0,0,1-1.1-.8,3.3,3.3,0,0,1-.7-1.2l-0.3-.9V77h-0.9V70.5h-0.5v7.4h0.9a5,5,0,0,0,.3,1.2,4.3,4.3,0,0,0,.9,1.4,4.2,4.2,0,0,0,1.3,1,4.6,4.6,0,0,0,1.8.3,4.5,4.5,0,0,0,1.8-.3,4.2,4.2,0,0,0,1.3-.9,4.1,4.1,0,0,0,.9-1.4,5.2,5.2,0,0,0,.2-1.2,3.9,3.9,0,0,0,0-.6V77h-0.9V70.5h-0.9Zm-15.7,6v5.1H118V70.5h3a4.7,4.7,0,0,1,2.9.7,2.6,2.6,0,0,1,1,2.2,3,3,0,0,1-.2,1.2,2.9,2.9,0,0,1-.6.9l-1,.7-1.3.3,0.3,0.3,3.9,4.8h-1.1l-3.6-4.6H119Zm0-.5h2l1.3-.2,1-.5a2.2,2.2,0,0,0,.6-0.8,2.8,2.8,0,0,0,.2-1.1,2.1,2.1,0,0,0-.8-1.8A3.8,3.8,0,0,0,121,71H119v5.1h0Z" fill="#fff"/>
</svg>