<svg height="800" viewBox="0 0 504 504" width="800" xmlns="http://www.w3.org/2000/svg"><path d="m252 2c-138 0-250 112-250 250s112 250 250 250 250-112 250-250-112-250-250-250z" fill="#354e5c"/><path d="m252 170.4c-45.2 0-81.6 36.8-81.6 81.6s36.8 81.6 81.6 81.6 81.6-36.8 81.6-81.6-36.4-81.6-81.6-81.6zm0 95.6c-7.6 0-14-6.4-14-14s6.4-14 14-14 14 6.4 14 14-6.4 14-14 14z" fill="#e8e3e3"/><circle cx="252" cy="252" fill="#f4efef" r="10"/><path d="m252 504c-141.2 0-252-110.8-252-252s110.8-252 252-252 252 110.8 252 252-110.8 252-252 252zm0-496c-136.8 0-244 107.2-244 244s107.2 244 244 244 244-107.2 244-244-107.2-244-244-244z"/><path d="m252 339.6c-48.4 0-87.6-39.2-87.6-87.6s39.2-87.6 87.6-87.6 87.6 39.2 87.6 87.6-39.2 87.6-87.6 87.6zm0-167.2c-44 0-79.6 35.6-79.6 79.6s35.6 79.6 79.6 79.6 79.6-35.6 79.6-79.6-35.6-79.6-79.6-79.6z"/><path d="m136.4 256c-2.4 0-4-1.6-4-4 0-66 53.6-119.6 119.6-119.6 2.4 0 4 1.6 4 4s-1.6 4-4 4c-61.6 0-111.6 50-111.6 111.6 0 2.4-2 4-4 4z"/><path d="m252 371.6c-2.4 0-4-1.6-4-4s1.6-4 4-4c61.6 0 111.6-50 111.6-111.6 0-2.4 1.6-4 4-4s4 1.6 4 4c0 66-53.6 119.6-119.6 119.6z"/><path d="m104 256c-2.4 0-4-1.6-4-4 0-84 68.4-152 152-152 2.4 0 4 1.6 4 4s-1.6 4-4 4c-79.6 0-144 64.8-144 144 0 2.4-2 4-4 4z"/><path d="m252 404c-2.4 0-4-1.6-4-4s1.6-4 4-4c79.6 0 144-64.8 144-144 0-2.4 1.6-4 4-4s4 1.6 4 4c0 84-68 152-152 152z"/><path d="m72 256c-2.4 0-4-1.6-4-4 0-101.2 82.4-184 184-184 2.4 0 4 1.6 4 4s-1.6 4-4 4c-96.8 0-176 78.8-176 176 0 2.4-1.6 4-4 4z"/><path d="m252 436c-2.4 0-4-1.6-4-4s1.6-4 4-4c96.8 0 176-78.8 176-176 0-2.4 1.6-4 4-4s4 1.6 4 4c0 101.2-82.8 184-184 184z"/><path d="m40.4 256c-2.4 0-4-1.6-4-4 0-118.8 96.8-215.6 215.6-215.6 2.4 0 4 1.6 4 4s-1.6 4-4 4c-114.4 0-207.6 93.2-207.6 207.6 0 2.4-1.6 4-4 4z"/><path d="m252 467.6c-2.4 0-4-1.6-4-4s1.6-4 4-4c114.4 0 207.6-93.2 207.6-207.6 0-2.4 1.6-4 4-4s4 1.6 4 4c0 118.8-96.8 215.6-215.6 215.6z"/><path d="m252 268c-8.8 0-16-7.2-16-16s7.2-16 16-16 16 7.2 16 16-7.2 16-16 16zm0-24c-4.4 0-8 3.6-8 8s3.6 8 8 8 8-3.6 8-8-3.6-8-8-8z"/></svg>